<svg version="1.0" xmlns="http://www.w3.org/2000/svg" width="170.667" height="170.667" viewBox="0 0 128 128"><path d="M62 8c0 3.3.3 4 2 4s2-.7 2-4-.3-4-2-4-2 .7-2 4zM39.4 12.1c-.3.6.6 2.4 2.2 4 2.1 2.2 3 2.6 4.1 1.7 1.1-.9.9-1.6-1.3-4-3-3-3.9-3.4-5-1.7zM83.6 13.8c-2.2 2.4-2.4 3.1-1.3 4 1.1.9 2 .5 4.1-1.7 1.6-1.6 2.5-3.4 2.2-4-1.1-1.7-2-1.3-5 1.7zM47.5 23.3c-2.6 2.6-3.5 4.3-3.5 6.8.1 7.1 7 17.1 16 23.4l4 2.8 4-2.8c9-6.3 15.9-16.3 16-23.4 0-2.5-.9-4.2-3.5-6.8-3.3-3.3-3.9-3.5-8.1-3-2.5.2-5.4 1.3-6.4 2.2-1.9 1.7-2.1 1.7-4 0-1-.9-3.9-2-6.4-2.2-4.2-.5-4.8-.3-8.1 3zm13.6 3.8 2.9 3.1 2.9-3.1c3.5-3.7 8-4.2 11.1-1.1 4.2 4.2 1.5 11.4-7.3 19.8-3.1 2.8-6.1 5.2-6.7 5.2-.6 0-3.8-2.5-7-5.6-8.8-8.3-11.2-15.2-7-19.4 3.1-3.1 7.6-2.6 11.1 1.1zM30 34c0 1.7.7 2 4 2s4-.3 4-2-.7-2-4-2-4 .3-4 2zM90 34c0 1.7.7 2 4 2s4-.3 4-2-.7-2-4-2-4 .3-4 2zM28.4 65.4c-.7 1.9 1.3 10.6 3.8 16.5 1 2.5 5 9.1 8.8 14.7l7 10.3v8.6c0 7.8.2 8.5 2 8.5 1.9 0 2-.7 2-9.2v-9.1l-7.9-11.8c-5.4-7.9-8.7-14-10-18.4-2.5-8.2-2.6-7.5.2-7.5 1.8 0 2.6 1 4 4.9 2.1 6 10.9 19.6 13.2 20.4.9.4 6.7.7 12.8.7 9.1 0 11.6-.4 13.4-1.8 3-2.4 10-13.7 12.1-19.4 1.3-3.7 2.2-4.8 3.8-4.8 2 0 2.1.3 1.3 4-1.5 6.5-5.3 13.9-12.3 23.9l-6.6 9.5v9.3c0 8.6.1 9.3 2 9.3 1.8 0 2-.7 2-8.6v-8.6l7.8-11.6c5.8-8.8 8.4-13.7 10.1-19.4 3.1-10.6 2.9-11.3-3.8-11.3h-5.4l-2.8 7c-2.9 7.1-9.6 17.6-11.7 18.3-.7.2-.5-.9.5-2.8 2.1-4.4 1.1-9.7-2.7-13.5-2.6-2.5-3.8-3-8-3s-5.4.5-8 3c-3.8 3.8-4.8 9.1-2.7 13.5 1.1 2.1 1.2 3 .4 2.8-2.1-.7-10.4-13.9-12.3-19.7l-1.9-5.6-5.3-.3c-4-.2-5.4.1-5.8 1.2zm40.7 10.5c3.3 2.7 3.3 9.5 0 12.2-3.2 2.7-7.7 2.4-10.6-.6-7.1-7 2.9-17.9 10.6-11.6z"/></svg>