<svg version="1.0" xmlns="http://www.w3.org/2000/svg" width="6666.667" height="6666.667" viewBox="0 0 5000 5000"><path d="M631.5 1258.1c-77 5.3-141.7 23-190.5 51.9-30.8 18.2-52.8 39.5-61.3 59.3-2.7 6.3-3.2 8.6-3.5 18.2-1 28.7 11.6 55.9 33.7 73l5.7 4.3 1.3 10.3c3.4 27.1 14.1 71.2 23.6 97.4 8.7 24 18.8 45.6 31.3 67 13.2 22.8 27.6 53.1 57.7 121.5 59.7 135.7 103.4 215.1 151.8 275.5 13.3 16.6 21.9 25.9 46.6 50.5 37.1 36.9 56.4 58.5 91.1 102.2 35 44 43.2 53.8 53.5 64.2 16.1 16.3 29.4 25.2 44 29.5 20.2 6 37 4.7 104.5-7.9 46.9-8.8 85.8-14.7 107.5-16.5 4.4-.4 9.1-.9 10.5-1.1 5.3-1 64.5-1.6 63.5-.7-.5.5-3.9 2-7.5 3.3-20.3 7.2-55.5 23.4-75.5 34.8-75 42.8-122.4 100.8-135.9 166.4-16 78.2 47.4 170.2 177.6 257.6 83.8 56.2 183.9 101.7 240.3 109.1 8.3 1.1 24.7 2.6 39.5 3.6 35 2.3 52.9 3.8 61.3 5.1 25 3.7 43.7 9.4 66.4 20.4 18.3 8.8 28.5 14.8 58.3 34.4 34.7 22.8 57.2 33.7 77.5 37.8 8.5 1.7 30.9 1.4 44.5-.6 6.4-.9 17.8-1.7 26-1.7 20.2 0 35.9 3 66 12.6 39.2 12.5 78 13.8 114.9 3.9 29.6-8 61.6-25.1 91.6-49 12.7-10.2 45.3-42.3 57.7-56.9 14.9-17.6 35.9-45.2 60.9-80.3 5-7 9.4-13 9.8-13.4.3-.4.6 8.4.6 19.5 0 22.3.9 27.9 6.6 39.2 6.5 13 15.4 76.6 15.7 112.5.2 16.2-.3 21.3-3.8 39.5-6.5 33.8-.9 85.7 15.2 141.5l5.1 17.5-1.2 8.4c-.7 5-4.3 17.9-8.6 31-9.2 28.2-10.6 33.5-11.2 44.1-.7 10.6.3 15.5 6.6 32.4 10.6 28.3 23.4 70.3 26.6 86.7.7 4.1 1.6 10.9 2 15.2.9 11.7 4.2 20.4 20.1 52.9 18.8 38.7 24.4 53.2 24.4 63.4 0 26.3 28.8 94.5 56.9 134.4 66.2 94.2 124.6 152.5 161.1 160.6 8.9 2 17.1 1.1 27.3-3.2 33.1-13.8 81.7-62.8 136.9-138.1 20-27.4 25.8-36.7 37.5-59.8 21.1-41.9 31.2-69.8 32.8-91 1.3-16 5.4-27 25.3-67.3 14.9-30.2 18.1-38.5 19.4-51.7 2-20.7 13.1-59.9 28.6-101.5l6.5-17.5V3201c0-13.5-1.2-18.8-10.8-47.5-6.5-19.5-9.5-31.4-9.5-38.3 0-2.2 1.4-8.4 3.1-13.8 5-16.3 11.5-43.9 14.3-60.4 3.9-23.6 4.9-34.8 4.9-54.5-.1-17.6-.6-22.7-4.9-46-2.7-15-1.1-53 3.6-86.7 3.9-27.2 7.3-44.5 10-49.8 7.2-14.4 9.6-33.8 7.1-56.3-.4-3.1-.6-5.7-.5-5.7.1 0 4.6 6.2 10 13.7 16.9 23.8 46.6 63.3 57.4 76.3 14.1 17.1 50.9 53.5 65 64.4 33.7 26.1 67.5 42.9 99.5 49.5 17.3 3.5 27.9 4.4 46 3.8 22.6-.8 37.4-3.5 61.5-11.2 14.5-4.7 28.8-8.3 39.8-10.1 12.3-2 33.8-1.9 48.7.1 15.2 2.1 31 2.6 40 1.4 10.4-1.4 27.6-7.1 40-13.2 13.2-6.5 23.5-12.7 45.5-27.4 33.3-22.3 56.6-34.7 81.2-43.2 23.7-8.1 38.6-10.5 86.3-13.6 52.4-3.4 66.8-5.4 90.7-12.5 82.3-24.4 192.1-85.3 269.3-149.6 16.8-14 53.7-50.9 64.7-64.7 25.8-32.4 41.5-63.5 47.9-94.7 3-14.9 3-36.5 0-50.9-5.3-24.4-16.5-50.9-30.4-71.6-16.4-24.4-40.9-49.4-67.7-69.2-29.8-21.9-68.9-42.7-108-57.3-6.3-2.4-11.9-4.8-12.5-5.3-1-.9 55.6-.3 64 .8 2.2.2 9 .9 15 1.5 22.8 2.2 51.8 6.7 97 15 43.2 8 48.3 8.9 61 10.5 52 6.7 74-4.8 121-63.5 7.2-9.1 20.2-25.3 28.7-36.1 29.5-37.2 65.2-76.9 90.3-100.5 39.9-37.4 76.7-87.4 114.9-155.9 24-42.9 48.8-94.7 88.9-185.5 26-58.8 42.7-93.4 50.7-105 .9-1.4 4.7-8.2 8.3-15.1 21.5-41.3 37.6-92.7 44.8-142.8l2.3-15.6 4.9-3.5c20.8-14.9 34.7-43.8 34.7-72.2 0-23.4-18.6-48.3-53.5-71.5-44.7-29.7-107.8-50-178.5-57.3-38.2-3.9-107.8-3.2-142 1.5-1.9.2-5.5.7-8 1-61.8 7.5-121.4 21.5-193 45.4-95.2 31.8-192.9 73.9-304.5 131.4-89.5 46.1-179.9 97.4-321 182.2-119.2 71.6-179.3 106.2-235.5 135.5-28.1 14.6-40.6 21.6-64.5 35.7-97 57.7-205.1 140.2-304.3 232.5-10.9 10.1-19.4 17.3-19.6 16.6-.2-.7-1.6-5.8-3-11.3-6.8-25.1-17.5-41.6-32.9-50.9-3.2-1.9-8.1-4-10.8-4.7-5-1.3-5.1-1.4-10.6-11.4-10.5-18.7-28.3-45.4-43.1-64.8-3.4-4.5-4.3-6.4-3.9-8.5.3-1.5 1.5-7.4 2.7-13.2 4.4-21.3 3.7-38.4-2.1-55-1.6-4.7-3.2-9.2-3.5-10-.7-2.1 13.9-21.2 21.6-28.3 19.9-18.5 50.4-31 87-35.7 4.7-.6 9.9-1.2 11.5-1.5 1.7-.2 14.3-1.3 28-2.5 41.6-3.4 61.7-6.6 81.1-12.9 39.5-12.8 73.2-39.1 94.7-73.9 3-4.9 9.6-17.7 14.5-28.5 17.6-38.5 27.2-49 48.7-53.4 22.3-4.5 43.8 6.6 49.6 25.7 1.6 5.5 2.5 7 4 7 3.2 0 4.4-4.2 3.2-10.9-2.3-12.4-9.3-25.7-18.3-35-10.8-11.2-21.1-16-35.6-16.8-10.8-.7-19.7 1.5-30.4 7.4-7.9 4.3-21.5 17.8-28.1 27.8-2.6 3.9-8.8 13.3-13.9 21-25.3 38.3-45.1 57.9-71.4 71.2-17.6 8.9-43.6 16.1-67.1 18.7-9.5 1-25 2.5-32 3.1-13.4 1.1-20 1.6-23.5 2-1.9.2-8 .9-13.5 1.5-13 1.4-28.8 4.4-39.9 7.5-42.4 11.6-80.8 40.3-97 72.3l-2.7 5.3-3.8-3c-9.7-7.7-17.2-18-31.4-43.2-5.7-10.2-11.3-19.9-12.3-21.5-13-20.4-32.9-40-48.9-48.1-13-6.7-29.8-8.4-42.5-4.4-7.3 2.3-17.1 7.8-21.4 12.1l-2.9 2.8-5.4-4.4c-17.1-14-38.4-16.6-59-7.3-17.4 7.7-36 25.1-49.9 46.4-2.8 4.4-9.3 15.4-14.4 24.5-15.7 28-24.2 38.7-37.6 47.7l-6 4.1-2.9-6.6c-10.1-23.1-34.3-47.4-62.5-62.5-28.4-15.3-51.1-20.1-120-25.7-44.6-3.6-70.9-9.9-95.2-22.7-12.1-6.4-23.6-15.3-35.3-27.4-13.7-14.1-19.2-21.5-42-56.4-6.9-10.4-12.3-17.5-18-23.1-26.4-26.1-61.5-25.5-83.8 1.4-10.3 12.4-18.9 36.6-14.5 41 2.8 2.8 4.6 1.3 6.8-5.5 3.7-11.5 9.4-17.9 20.3-22.8 13.1-6 30.6-5.3 44 1.8 7 3.7 16.1 13.1 21.7 22.6 2.3 3.8 7.7 14.9 12.1 24.6 9.7 21.7 16.6 33.6 27 46.5 21.9 27.3 54.1 48.9 86.9 58.3 17.1 5 41.8 8.9 69.5 11.1 3.9.3 12.9 1 20 1.6 53.6 4.3 83.4 13.9 110.5 35.5 6.4 5.1 9.9 9.1 24.8 28.2l7.1 9.2-1.5 4.3c-5.6 16-5.7 37.9-.2 61.3l2.1 9.1-9.3 12.4c-12.6 17-28.3 40.9-37 56.2-6.4 11.3-7.5 12.7-10.3 13.2-7.5 1.4-16 6.6-23.8 14.6-6.6 6.6-8.6 9.6-13.3 19.2-3.3 6.8-6.7 15.8-8.5 22.7-1.7 6.2-3.2 11.5-3.3 11.6-.2.2-6.8-5.8-14.8-13.3-116.7-109-242.9-202.4-353.5-261.9-7.1-3.9-20.2-10.7-28.9-15.3-26.6-13.7-76.7-41.7-108.6-60.5-29-17.1-58.5-34.6-72.5-43-28.5-17.1-98.3-58.8-110.5-66-17.5-10.4-56.8-33.4-63-37-3-1.7-17.6-10.2-32.5-18.7-71.9-41.4-125.7-70.3-197.5-106.1-95.1-47.5-179-83.1-261-110.9-86.6-29.3-159.3-44.9-239-51.3-12.7-1-73.8-1.3-86.5-.4zm69.6 34.8c15.9 4.1 29 13.6 34.8 25.3 9.1 18.2 2.9 30.4-21.4 42.2-37.7 18.4-61.7 23-83.1 16-10.6-3.4-19.7-13-22.9-24.1-3.2-10.8-1.5-28.4 3.5-38.3 1.1-2.1 2-4.2 2-4.5 0-.3-4.9 3.7-10.8 8.8-25.7 22.3-45.3 31.4-65.3 30.5-7.3-.3-9.6-.9-16.3-4.1-8.6-4.1-18.2-12.5-22.3-19.5-1.4-2.4-2.4-4.4-2.2-4.6.2-.2 7.2-2.7 15.4-5.6 29.5-10.1 63.1-17.6 95-21 5.5-.6 11.6-1.3 13.5-1.5 1.9-.3 10.5-.8 19-1.1 8.5-.4 15.7-.9 16-1.2.3-.2 8.8-.2 19 .1 13.6.5 20.5 1.2 26.1 2.6zm3672.2-.9c41.1 3.5 79.8 11 111.7 21.9 14.4 4.8 20 7.1 20 8.1 0 1.2-4.9 8.2-8.3 11.9-4.8 5.1-14.3 10.9-21.5 13.1-20.9 6.5-46.7-3.1-74.9-27.8-13.2-11.6-12.7-11.3-9.8-5.1 10.1 21.8 5.8 46.3-10.2 57.6-10.8 7.6-30.5 9.9-48.5 5.5s-52.2-19.4-60.4-26.6c-18.5-16-4.9-46.7 24.9-56.2 4.5-1.4 10.9-2.9 14.2-3.4 7.3-1 46-.4 62.8 1zm-198.9 18.6c-3.2 2-15.9 9.2-28.2 16-34.6 19.4-49.9 29-67.6 42.5-10.7 8.1-20.9 17.3-18.1 16.3 1.1-.3 7-2.4 13-4.6 35.7-12.8 74.5-17.5 103-12.3 18.7 3.3 38.7 11.9 51.1 21.9 5.2 4.2 9.4 11.2 9.4 15.8 0 12.8-10.6 17-64.5 25.3-32.3 5-54 10.7-72 19-4.1 1.9-7.5 3.6-7.5 3.8 0 .1 12.5.2 27.8 0 35.5-.3 52.6 1.6 83.8 9.2 34.6 8.5 69.6 23.6 99.6 43.1 8.4 5.5 13.8 9.3 27.5 19.9.9.7-.9 1-5.9 1.1-5.8 0-8.5.6-13 2.8-7.9 3.8-16 12.2-20.5 21.3-3.4 6.9-3.8 8.5-4.1 17.2-.5 12.2 1.4 20.5 7.3 32.5 6.2 12.7 14.4 23.1 35.3 44.9 18.3 19.2 28.4 31.8 33.1 41.7 3.5 7.3 3.7 17 .4 21.6-4.8 6.7-18.2 11-38.2 12.1-22.6 1.2-45.3-3.2-69.1-13.4-.9-.5-.7.5.8 2.8 4.6 6.8 12.2 23.6 14.6 32.1 12.1 42.4-.2 84.2-35 119.2-13.9 14.1-31.7 27.5-53.9 40.6-4.9 2.9-9.1 5.5-9.3 5.6-.2.1-.5 2.8-.8 6.1-.9 12.6-5 23.9-12.2 33.4-16.3 22-37.1 33.3-69.4 37.9-8 1.2-40.7 1.4-56.2.4l-9.9-.7.7 3.9c.9 4.9 5.5 15 9.6 20.9 1.7 2.5 7.8 10 13.5 16.5 5.7 6.6 12.2 15 14.4 18.7 9.3 15.8 10.7 32 3.7 40.8l-2.2 2.8-14.2-4.5c-7.8-2.5-14.2-4.4-14.2-4.3 0 .1 1.8 4 3.9 8.6 2.2 4.6 4.9 11.8 6.1 15.9 2.4 8.5 3.6 25.2 2.6 35.2l-.7 6.4-18.1-.4c-9.9-.2-17.8 0-17.5.4.3.5 3 4.8 6 9.6 9.7 15.5 16.8 34.3 20.4 54.3 1.6 8.9 2.4 38.7 1.1 40.1-.9.8-16.1-1.6-48.8-7.7-87.3-16.3-118.5-20.1-171-20.5-19-.1-34.5-.3-34.5-.4 0-.1-1.5-.4-3.4-.7-18.2-2.5-38.9-22.6-43.2-41.9-3.4-15 7.5-36.1 24.2-46.6 10.3-6.6 27.4-11.8 38.7-11.8 6.8 0 21.9 4 33.7 8.9 5.5 2.2 10.1 3.9 10.3 3.7.7-.8-11.4-12.9-17.6-17.4-18.5-13.7-38.4-19.5-85.7-25.2-13.5-1.6-29.5-4.3-29.5-5 0-1.1 16.9-6 26.5-7.7 13.3-2.4 47.2-2.3 68.5.2 6.1.7 30.1 3.3 37.5 4 21.1 2.1 52.1 3 60.2 1.8 3-.5 2.8-.7-5-4.6-15.7-7.8-27.7-23.1-28.5-36.2-.5-7.7 1.5-12.1 8.6-18.7 10.1-9.5 21.6-12.9 42.7-12.9 7.7 0 15.1.3 16.5.6 4.9 1.1 32.1.8 33.3-.4.8-.8.7-1.1-.4-1.1-2.9 0-9.6-6.9-12-12.2-1.9-4.3-2.4-6.9-2.3-13.8.2-15.8 7.2-26.9 21.7-34 10.8-5.3 19.2-7 36.2-7.5 17.8-.4 26.3.6 40 4.5 6.1 1.7 14.4 3.4 18.7 3.7 6.6.5 8.2.3 12.2-1.7 5-2.4 5.2-4 .5-4-4.6 0-13.3-4.6-17.4-9.2-7-7.7-10.6-19-8.5-26.8 3.7-13.9 36-26.9 56-22.5 1.9.4 3.3.5 3 .2-.3-.3-5.8-4.1-12.3-8.4-29.5-19.8-35.5-29.6-25.6-41.6 6.8-8.3 19.7-11.8 35.6-9.7 10.6 1.4 38.3.7 53.3-1.3l8.5-1.2-36-18.7c-19.8-10.2-39.3-20.2-43.2-22.3-4-2-7.5-4-7.8-4.5-.3-.5 9.4-4.1 21.5-8.2l22.1-7.3-2.3-1.9c-3.8-3-16.7-9.1-26.3-12.4-14.1-4.8-35-8.8-49.3-9.4-2.9-.1-4.9-.5-4.5-.9.9-.8 38.4-12.9 55.6-17.8 13.3-3.9 44.7-11.5 54.5-13.2 3.9-.7 7.1-1.3 7-1.5-.2-.1-4.8-.7-10.3-1.3-35.1-4-61.8-9-91.9-17.2-20.5-5.6-30.1-9.8-37.6-16.6-13.9-12.5-11.8-26.4 6.3-42.4 19.4-17.2 41.3-28.3 66.7-33.7l8.5-1.8-10.5-2.2c-5.8-1.2-30.1-6-54-10.7-23.9-4.7-47.7-10-52.9-11.7-15.3-5.1-24.2-12.2-29.4-23.5-1.8-3.9-2.2-6.6-2.2-14.8 0-9.2.3-10.5 3.3-16.9 7-14.8 24.6-28 45.7-34.1 6.8-1.9 27.5-6.3 31.4-6.5 2.1-.2-5.7-3.1-11.9-4.4-9-2-22.9-2.4-44-1.3-16.9 1-25.1.1-34.5-3.4-6.3-2.4-6.6-3.1-3.1-10.6 7.4-15.7 26.5-33.3 48.1-44.1 8.4-4.2 19.9-8.1 24.4-8.3 2.6-.1 2.6-.1-.4-.9-1.6-.5-6.8-1.6-11.6-2.4-19.8-3.6-38.4-10.9-46.8-18.3l-4.4-3.9 13.3-5.2c41.9-16.7 102.5-37.6 138.2-47.7 22.1-6.2 58.7-15.3 66.2-16.4.6 0-1.7 1.5-5 3.5zM851.5 1314c36.9 8.9 79.2 22 125.2 38.6 26.6 9.6 61.4 23.1 62.6 24.3 1.4 1.3-6.5 6.9-16.5 11.6-10 4.7-23 8.5-37.2 10.9-9 1.6-12 2.6-7.4 2.6 4.3 0 17.8 4.9 27 9.7 21.4 11.3 40.3 30 46.4 46 2.1 5.3 2.2 5.1-8.1 8.5-7.5 2.4-12.5 2.6-50 1.8-17.3-.4-25.8.7-34.4 4.2-3.5 1.4-3.4 1.4 10.6 4.1 16.2 3.1 27 6.5 36.3 11.3 37.9 19.8 42.8 61.3 9.2 78.3-9.5 4.8-19.1 7.1-75.1 18.1l-52.4 10.3 9.1 1.9c25.8 5.2 50.8 18.5 69.4 36.8 8.5 8.4 9.8 10.2 11.3 15.2 3.4 11.9-2 22-16.5 30.5-5.8 3.5-20.1 8-41.4 13.3-28.9 7.1-48.8 10.5-85.1 14.6l-6 .7 11.5 2.2c16.1 3.2 30.6 6.8 49.4 12.1 17.6 4.9 55.7 17.2 56.8 18.3.5.4-.9.8-3 .9-16.7.9-36.7 4.7-50.1 9.4-8.8 3.1-28.1 12.5-28.1 13.7 0 .3 10 4 22.2 8.2l22.1 7.6-16.9 8.8c-9.3 4.8-21.8 11.4-27.9 14.5-6 3.2-18.3 9.5-27.2 14.1-8.9 4.6-15.9 8.5-15.4 8.7.4.1 6.8.9 14.2 1.7 9.1.9 19.4 1.2 31.9.8 34.5-1 37.5-.7 46.3 5.4 4.5 3.1 8.7 9.8 8.7 13.8 0 8.3-8.6 17.4-29.2 31.1-7.1 4.7-12.8 8.7-12.8 9.1 0 .3 1.2.2 2.8-.2 4.7-1.2 17.1-.6 24.1 1.1 14.4 3.6 27.7 11.8 30.8 19.1 6.2 14.9-9.6 38.2-26 38.3-4.7 0-4.1 1.5 1.7 4.1 6.2 2.8 12.7 2.3 30.7-2.3 16.2-4.1 16.6-4.2 34.4-4.2 19.5-.1 28.8 1.4 39.4 6 15.8 7 24.3 19.5 24.3 35.9 0 11.3-4.2 20-11.6 24-2 1.1-3.6 2.2-3.6 2.6 0 1.2 16.7 1.7 28.5.8 25.4-2 36.8-1.4 48.6 2.6 11.5 3.9 19.2 10.4 23.2 19.4 6.2 13.9-8.2 36.3-29.7 46.1l-5.9 2.7 3.4.6c3.9.7 42.7.1 50.9-.8 62.5-6.9 62.4-6.9 85.5-6.8 19.8 0 24.4.3 33 2.2 10.8 2.3 22.2 5.8 22.9 7 .5.8-15.8 3.4-44.4 7.2-43.2 5.7-62.4 13.5-81.9 33.3-3.6 3.6-6.3 6.7-6 7 .2.2 3.4-.8 7.1-2.4 3.7-1.6 11.1-4.3 16.5-6.1 17.3-5.7 34-4.3 52.3 4.3 6.8 3.3 10 5.6 16 11.7 15.6 15.9 19.1 32.4 10.6 49.6-7.6 15.3-26.7 30.1-39.9 30.8-2 .1-3.7.4-3.7.7 0 .3-15.2.5-33.7.5-19.3.1-39.4.6-46.8 1.3-34.7 3.4-69.5 8.6-118 17.6-15.9 3-33.5 6.2-39 7-5.5.9-11.2 1.8-12.6 2.1-2.3.3-2.8 0-3.3-2.7-1.1-5.4-.6-24 .9-34.3 3.2-22.5 11.2-43.3 23.8-61.8l3.9-5.9-18.1.4c-15.6.4-18.1.2-18.6-1.1-1.1-2.9-1.4-20.5-.4-27.6 1.3-9.5 5.4-22.6 9.5-30.4 1.8-3.6 3.3-6.6 3.1-6.7-.1-.1-6.3 1.8-13.7 4.2-7.4 2.4-14 4.4-14.7 4.4-.6 0-2-1.5-3-3.3-6.3-10.6-4.3-25.8 5.2-41.2 2.4-3.9 8.7-12 14-18 14.4-16.3 20.6-26.3 22.5-36.4l.8-4.3-11.7.7c-16.9 1-44.9.7-54.4-.5-45.4-6-78.4-34.2-81.4-69.4l-.6-7.6-8.6-5.2c-64.5-38.7-94.4-79.4-94.2-128.3 0-23.4 6.7-46.4 18.3-63.3 1.6-2.3 2.8-4.2 2.6-4.2-.2 0-4.3 1.6-9.1 3.5-25.2 9.8-54.4 12.9-78.7 8.1-13.2-2.6-18.9-6-22.2-13.2-2.8-6.5-1.5-12.8 5-23.9 5.8-9.8 11.6-16.8 31-37.3 10.1-10.7 20.9-22.8 24-27.1 10.9-14.6 16.8-28.9 17.9-43.1 1.4-18.4-9.3-37.3-25.4-44.8-4.5-2-7.4-2.6-12.6-2.7h-6.9l3.4-2.8c6.3-5.5 24.3-17.9 35-24.3 41.1-24.4 84-38.8 134.3-44.9 7.2-.9 20.6-1.3 39.2-1.2l28.2.2-4.5-2.3c-16.2-8.2-37.9-14.5-66.4-19.2-46.2-7.5-56.5-9.7-64.2-13.6-18.3-9.3-9.2-27.7 20.7-41.5 26.9-12.4 59.6-14.9 97.1-7.4 12.6 2.5 33.2 8.6 44.3 13 3.6 1.3 6.6 2.4 6.7 2.2.5-.5-19-16.5-27.1-22.4-14.7-10.6-26.4-17.6-74.2-44.7-9.5-5.3-17.3-10-17.3-10.2 0-.7 3.1-.1 26.5 5.6zm-421.9 48.4c-.9 3.7 1.3 18.4 3.9 26 4.7 13.6 14.1 24.4 27.3 31.3 4.2 2.3 14.5 6.5 22.7 9.3 8.3 2.9 18.6 7.1 22.9 9.3 18.3 9.4 29.5 26.5 24.6 37.4-4.1 9.2-23.4 22.6-37 25.6l-5.5 1.3 9 3.7c16.6 7 26.1 9 42.5 9.1 8 0 20-.3 26.7-.8l12.3-.9 7.2 3.6c4 2 11.1 6.8 15.8 10.7 20.4 16.9 24.5 20 30 22.9 3.2 1.7 8.1 3.4 11.1 3.8l5.3.8-10 3.9c-28.2 11-64.4 32.9-73.1 44.4-1.8 2.4-3.8 6.2-4.4 8.5-3.1 11.8 5.1 27.1 18.1 33.7 7.9 4 13.3 5.2 27.8 5.8l14.3.7-5.2 4c-13.3 10.1-21.6 26.6-22.6 45-1.4 25.9 11.9 45 39.1 56.1 17.6 7.2 34.7 8.5 50.8 3.8 1.5-.4 1.3.5-1.1 6.4-5.6 13.5-6.6 19.3-6.5 36.7.1 14.5.5 18 4.2 36.5 6.1 30.9 7.4 50.4 4.5 68.5l-.6 4 3.6-3.2c9.3-8.2 25.6-6.7 43.4 3.8 3.1 1.9 12.2 9.8 20.2 17.7 7.9 7.8 17.4 16.2 21 18.6 7.1 4.8 17.1 8.6 22.3 8.6h3.2l-3.1 3.2c-10.2 10.8-10.9 29.7-1.6 45.6 12.9 21.9 41.8 29.3 84.8 21.8 4.4-.7 8.2-1.2 8.3-1.1.2.2-1.2 3.9-3.1 8.2-8 17.8-11.7 30.6-12.2 42.8-.7 15.9 3.7 27.9 13.9 38 7.1 7.1 13.8 10.5 21.9 11.3l5.8.5-3 1.8c-4.4 2.6-10.7 11.1-12.7 17.1-5.2 14.9 0 30.4 12.9 39.1 5.1 3.5 15 7.1 16.1 6 1.4-1.4.2 2.5-7.3 24.3-4.3 12.6-8.4 22.9-9 22.9-2 0-13-10.5-22.7-21.8-5.3-6.1-18.7-22.7-29.8-36.7-42.4-53.8-56.3-69.6-99.1-113-45.4-45.9-62.8-67.4-90.9-112-33.5-53-59.6-104.8-109.4-217-32.8-73.9-44.1-97.7-55.6-116.5-5.9-9.7-17.1-32.1-22.5-45.2-15.7-38.4-27.5-86.9-30.6-126.5l-.7-8.7-8.3-4c-17.8-8.7-29.3-27.4-29.7-48.5-.2-8.3 3.1-14.4 14.1-25.9 5-5.2 6.6-5.9 5.7-2.3zm4157.2 14.5c3.1 4.5 3.7 6.4 4 12 1.1 20.4-11.5 41.6-30 50.5-6.8 3.3-7.8 4.1-7.9 6.4 0 1.5-.2 3.4-.3 4.2-.2.8-.6 5.1-1 9.5-.8 9.9-1 11.2-4.6 31.5-8.8 48.5-25.4 94.6-48.3 133.5-9.9 16.7-27.8 53.8-46.2 95.5-20.1 45.5-26.6 59.9-32.7 73.5-60.9 133.7-112.5 215.5-169.1 267.9-10.5 9.7-40.2 40.9-54.9 57.6-11.9 13.5-29.9 35.6-50.8 62-10.6 13.5-22.7 28.5-26.9 33.5-8.3 9.8-23.7 25.5-25 25.5-.9 0-14.7-38.9-15.8-44.3-.5-2.5-.3-2.7 2.4-2.7 4.6 0 14.6-5.5 19.3-10.6 2.3-2.5 5.3-7 6.6-9.9 6-13 1.2-30.7-10.8-40.3l-3.7-2.9 5.6-.6c10.5-1.1 20.4-7.5 27.2-17.8 6.5-9.7 8.5-17.7 7.8-31.8-.5-13.1-3.2-22.8-11.1-41-2.5-5.5-4.3-10.1-4.1-10.1.1 0 3.8.7 8.1 1.5 40.6 7.6 69.8.9 83.4-19 10.6-15.5 11.1-37 1.1-47.5l-3.6-3.8 5.5-.6c11.8-1.4 20.2-6.9 41-27.1 9.8-9.4 18-16.4 22-18.8 14.5-8.5 29.1-10 38.6-4.1l4.9 3 .1-22.5c0-20.4.3-23.9 2.7-36.1 9.4-46.8 9.6-60.1 1.3-82.3-1.9-5-3.4-9.2-3.3-9.3.1-.1 2.7.4 5.7 1.2 8 2.1 22.9 1.8 33-.6 12.3-3 27-10.4 35.1-17.9 12.4-11.3 17.2-22.1 17.2-38.6.1-20.5-7.8-37.1-23.5-49.5l-4.7-3.8 14.2-.5c21.8-.7 32.6-5.1 40.7-16.5 9.2-12.8 8.3-25.2-2.8-35.9-11.4-10.9-42.5-29.1-66.5-38.9-11-4.4-12.6-5.3-9.6-5.4 8.5 0 18.6-6 37.4-22 20.6-17.5 25.7-19.7 41.9-18.4 6.1.5 17.6.9 25.6.8 16.5 0 23.8-1.5 42-8.6l10.5-4.1-6-1.4c-16.6-3.8-36.1-18.6-38.1-28.8-2.1-11.2 11.1-27.8 28.5-35.7 3.5-1.6 12.3-5 19.5-7.5 25.3-8.7 35.8-15.4 44.4-28.2 5.3-8 9.2-20.4 9.9-31.5l.6-9 5 5.4c2.7 3 6.5 7.9 8.5 10.9zm-692.8 37.3c3.7 5.1 5.4 11 4.5 16.2-.3 2.2-2.9 8.3-5.8 13.6-4.7 8.7-5.2 10.1-5.2 16 0 5.3.5 7.4 2.7 11.1 3.2 5.5 7.4 9.3 12.3 11 1.9.7 3.5 1.5 3.5 1.9 0 .3-2.1 1.4-4.7 2.4-9.3 3.8-17 14.2-20.4 27.5-6.9 26.7 6 50.2 37.6 68.4 6.6 3.8 27.1 13.3 34.9 16.1 1.8.6 1.8.8-.4 3.1-3.6 3.8-9.7 6.3-22.1 9.1-21.9 4.9-28.2 8-29.5 14.9-1.4 7.9 2.5 13.5 18.9 26.7 24.7 19.8 49.8 33.7 80.7 44.9 10.2 3.7 10.4 3.8 5.9 3.8-6.9.1-19.1 3.6-26.9 7.7-6.3 3.3-10.9 6.9-9.9 7.8.2.1 13 6.7 28.4 14.6 15.4 7.8 28.9 14.7 29.9 15.2 1.5.8-4.1 3.3-29 12.4-40.9 15.1-39.3 14.2-26.9 14.5 5.5.1 11.1.3 12.5.4 1.4.1 7 .6 12.5.9 32 2.2 55.6 9.3 67.2 20.2 4 3.8 4.4 4.4 2.3 3.9-18.4-4.5-37.4 3.5-45 19-3.2 6.4-3.9 17.9-1.6 25.7 2 6.9 7.9 15.4 13.9 19.8 4.6 3.4 4.6 3.5 2.2 4.2-5.5 1.4-10 5.5-17.9 16.2-4.6 6.1-10.3 13-12.8 15.3-10.7 9.7-24.4 13.8-59.8 17.8-8 .9-17.8 2.5-21.9 3.6-28.1 7.5-49.1 32.1-43.1 50.3.6 2.1 1 3.9.7 4.2-.2.3-6-.5-12.8-1.7-29.6-5.2-54-1.5-63.8 9.7-10.4 11.8-11.5 33.8-2.6 50.1l2.3 4.3-3.6-1.6c-17.2-7.4-35.8-10.6-60.2-10.6-22.2.1-37.2 2.4-58.6 9.2-12 3.8-18.9 4.9-36.4 5.6-20.1.8-35.3 2.8-44.6 5.9-8.3 2.7-20.2 9.1-25.5 13.4l-3.1 2.6 5.6-.3c6.5-.4 14.7 1.7 23.1 6.1 7.4 3.9 23.6 19.8 28.4 27.9 8.7 15 11.2 26.1 9.1 40.5-.8 5.4-1.5 14.5-1.5 20.3 0 9.8.2 10.9 3.2 16.5 1.7 3.3 5.1 7.8 7.5 10.1 10.1 9.6 15.8 11.6 32.1 11.5 16.6-.2 20.9 2.2 23.9 13.2 1.7 6.4-.1 13.2-5.7 21.5-8.1 12.3-9.1 13-18.5 14.7-12.6 2.2-25 5-44.7 10-33.3 8.5-66.2 15.4-87.8 18.5-4.4.6-9.1 1.3-10.4 1.5-2.1.4-16.2 1.7-32.1 3-19.6 1.6-35.5 2.6-81.5 5-13.8.7-31.1 1.4-50 2-8.8.3-20.5.7-26 1-5.5.2-17 .7-25.5 1-8.5.3-20.3.8-26.2 1.1-7.5.4-10.8.2-10.8-.5 0-.6.9-5.1 1.9-9.9 3.8-16.9 5.4-32.1 5.4-50.2 0-15.6-.3-18.6-2.7-27.4-4.9-18.9-10.1-27.2-27.6-44.5-11.2-11.1-14-15.2-16.5-24.8-4.6-17.7 3-38.5 17.8-48.9l2.7-1.9-4.7-.3c-12.1-.7-24.1-5.8-33.6-14.3-21.7-19.4-24-49.4-5.5-73.6 4.4-5.7 12.8-12.5 19-15.3 3.7-1.6 3.9-1.9 2.1-2.8-1-.6-5.6-2-10.1-3.2-11.3-2.8-18.6-6.5-22.7-11.3-3.8-4.4-6.5-10.9-4.7-11.5 3.3-1.1 12.4-8.8 15-12.8 7.2-10.7 4.5-28.3-5.3-35.2-5.6-3.9-12.4-13-14.6-19.5-2.1-6.3-1.7-11.5 1.8-22.7 2.1-6.4 2.7-10.6 2.8-17 0-7.9-.3-9-3.9-16.2-4.3-8.8-11.5-16.7-18.2-20.1l-4.4-2.2 20.8-10.9c65.8-34.6 104.8-56.9 237.2-136.1 42.5-25.4 64.3-38.4 110.5-65.8 10.8-6.4 64.5-37.2 94.5-54.2 10.4-5.9 43.7-24.2 54-29.8 4.7-2.5 18-9.6 29.5-15.7 24-12.9 88.2-45.4 109-55.2 48.3-22.9 52.7-24.8 54.7-23.7 1 .6 3.2 2.8 4.8 5.1zm-2774.8-3.3c13.8 5.9 55.4 25.8 88.8 42.5 75 37.5 132.9 69.1 238 130.1 19.4 11.2 87.5 51.8 181.5 108 61.3 36.7 124.1 72.3 163 92.5 32.1 16.7 31.7 16.4 29.9 17.5-13.7 8.2-23.5 23.6-23.6 37 0 4 1.1 10.1 3.2 17.5 5.4 18.9 3.2 27-10.8 40.1-8.7 8.1-11.5 13.8-11.4 23.6 0 9.7 5.3 18.3 15 24 4.6 2.7 4.9 3.7 2.8 8.6-3.2 7.8-11 12.6-27.8 17.3-5.4 1.5-9.8 2.9-9.8 3.3 0 .3 2.9 2.1 6.5 3.9 7.2 3.8 16.5 13 20.8 20.6 9.8 17.5 10.2 36.1 1 52.4-8.8 15.9-28.3 28-45.5 28.4l-4.8.1 3.8 2.7c12.1 9 18.3 21.6 18.3 37.5.1 15.2-3.5 22.1-19.2 37.3-14.8 14.2-21.7 25.4-26 42.5-2.5 9.5-3.5 37.7-1.8 50.7 1.1 9 5.7 34.2 6.6 36.6.5 1.5-.5 1.6-11.3 1-13.3-.6-28.9-1.3-50.4-2.1-8-.3-19.2-.7-25-1-5.8-.3-16.1-.7-23-1-24.5-1-37.6-1.7-61-3-4.7-.3-13-.7-18.5-1-13.2-.7-27.4-1.7-48.5-3.5-27.7-2.4-66-9.6-111-20.8-15.1-3.8-32.9-7.9-39.5-9.2-6.6-1.2-13-2.6-14.2-3.1-2.6-1-10.7-11-14.2-17.7-4.5-8.3-3.9-19.1 1.3-25.1 3.7-4.1 7.6-5.1 20.3-5 9.7 0 12.8-.3 17.3-2 11.5-4.4 21.2-14.7 24.4-26.2 2-7 2-11.6 0-23.1-3.2-18.2-1.1-31.6 7.1-45.3 13.8-22.9 32.4-35.7 53.5-36.8l4.5-.2-8.1-5.2c-9-5.8-17.2-9.3-26.6-11.6-9.5-2.4-11.6-2.6-33.8-3.7-22-1.2-29.6-2.4-44-7-26.9-8.7-63.5-10.8-89.9-5.4-8.6 1.8-22.3 6-26.3 8-1.6.8-2.8 1.3-2.8 1.1 0-.3 1.1-2.4 2.4-4.8 5.7-10.1 7.2-25.6 3.7-36.9-3.9-12.3-10.4-18.2-24.4-22-12.7-3.5-29.1-3-56 1.6-3.6.7-3.7.6-2.8-1.7 6.3-16.6-6.2-36.8-29.5-47.9-9.9-4.8-14.3-5.8-38.9-9-27.6-3.7-33.5-5-44-10-10.4-5-14.7-8.8-22.8-20.3-8.3-11.6-14.3-17.3-19.1-18.3l-3.6-.6 5.3-3.8c5.8-4.2 9.4-8.8 12.8-16.5 1.8-3.9 2.3-7 2.3-14 .1-7.9-.2-9.7-2.7-14.7-3.6-7.3-11.9-14.9-19.5-17.9-6.1-2.4-17.7-3.1-24.2-1.5l-3.5.8 4-4.2c5-5.2 19-12.1 30-14.9 15-3.8 31.4-5.7 55.5-6.7 9.1-.4 16.6-.8 16.8-.9.1-.1-14.9-5.8-33.3-12.6-29.3-10.8-33.3-12.5-31.8-13.7 1-.7 10.8-5.8 21.8-11.4 11-5.5 23.8-12.1 28.4-14.6l8.4-4.5-2.9-2.4c-7.5-6.1-24.5-12.2-34.4-12.3-4.2 0-3.5-.4 9.7-5.4 31-11.8 59.6-28.6 83.4-49 9.5-8.2 11.9-11.8 11.9-18.1 0-8.9-4.8-12.2-23.9-16.5-15.4-3.5-22.6-6.1-27-9.8l-3.4-2.8 9.4-3.9c37.8-15.5 57.9-31.7 64.9-52.4 7.2-21.6-1.9-48-19.6-56.7l-5.5-2.7 3.7-1.3c4.8-1.6 11.1-7.8 13.6-13.2 3.5-7.9 2.9-12.8-3.5-25.5-6.3-12.3-7.1-17.3-4.1-24.5 1.4-3.5 7-10.2 8.5-10.2.4 0 2.7.8 5.1 1.9zm1350.7 286c7.2 3.7 13 11.6 22 29.6l8.4 16.8 8.5-16.9c7.4-14.7 9.4-17.8 15.1-23.5 12.2-12.2 21.9-11.7 39.2 2.1 12.5 9.8 20.9 21.1 35.9 48 5.1 9.1 12.2 21 15.9 26.5 7.8 11.7 21.6 26.1 31.6 32.7 3.9 2.5 8.7 6.3 10.7 8.4 10.1 10.6 13.2 27.9 8.8 49.4-3.1 15.2-2.5 14.5-9 10.3-14.9-9.6-31.7-15.3-45.1-15.3-9.2 0-19.2 2.9-40.1 11.6-39.4 16.5-56.9 20.7-80.8 19.8-20.1-.8-33.5-4.4-67-17.9-29.6-12-36.3-13.9-45.8-13.2-11.1.8-22.5 5.1-34.5 13.1-2.9 1.9-5.6 3.1-6 2.7-.4-.4-1.7-5.3-2.8-10.7-1.6-7.7-2-12.4-1.6-20.9.7-18.5 4.8-25.9 20.2-36.8 20.4-14.5 28.9-25 49.5-61.8 10.5-18.7 14.8-25.2 22.5-34.2 8.4-10 20.5-18.9 29.5-21.8 3.6-1.2 10.4-.3 14.9 2zm589.9 183.6c-1.4 8.8-.3 22.2 2.7 31.1 4.7 13.9 12.3 23 23.9 28.5 5.5 2.7 6.2 2.8 7.1 1.3 7.8-12.8 22.8-23.8 38.3-28 6.2-1.6 23.4-2 27.3-.5 2.4.8 2.4.8.2 1.5-1.2.4-3.9 2.6-6.1 5-9.1 9.9-9.5 27-.8 36 1.8 1.9 6.3 4.6 11.1 6.5 13.5 5.5 18.4 12.4 17.2 24.2-1 8.8-4.1 14.9-14.6 28.9-5.2 6.9-10.4 14.7-11.7 17.5-9.4 20.1-2.6 47 15.3 60.7 5.8 4.3 6 4.7 3.8 5.2-3.9 1-9.6 6.6-11.7 11.6-4.3 9.9-3.1 25.5 2.9 36 1.4 2.5 10.3 12.1 19.8 21.5 25.4 25.1 29.7 32.9 29.7 54.5.1 18.5-6 39.9-16.7 59.4l-5 9.1-26 .1c-30.3.1-42.4-.7-63-4.2-47.9-8.2-44.9-7.8-66-7.8-21.9 0-27.6.9-45.5 7.3l-8.5 3 4.5-4c8.8-7.9 25.6-20 33.3-24 16.2-8.4 31.3-11.8 53.2-12l13-.1-23.5-7.8c-26.3-8.8-41.3-12.8-52.8-13.8l-7.7-.7 7-4.1c19.6-11.6 36.4-17.4 62-21.7 2.2-.3-15.9-3.3-27.5-4.4-4.1-.5-16.9-.8-28.5-.7-19.1.1-21.9.3-30.6 2.7-11.6 3-20.8 7.2-39.6 17.8-15.9 9-25.3 12.7-34.6 13.5-9.7.9-12.7-.3-15.6-6-4.3-8.7-2.9-21.7 3.2-29.8 4.2-5.4 8.6-8.4 15.6-10.5 5.8-1.7 15.4-1.3 19.2.8 4.2 2.2 3-.2-2.7-5.8-17.7-17.2-39.8-20.3-77.4-10.8-7.4 1.9-14.6 3.8-15.9 4.1-2 .6-1.4 1.1 4.8 4 6 2.8 18.9 12.9 17.8 14-.2.2-2.8-.5-5.9-1.6-6-2.1-18.7-4.4-19.6-3.5-1.3 1.3 15 38.4 19 43.3 2.5 3-.7 2.1-10.1-2.9-21.6-11.3-40.4-30.8-50-52.1-1.6-3.4-3-5.7-3.3-5.2-.3.5-.9 4.2-1.3 8.2-1.2 11.8-1.7 9.6-3.9-15.8-.9-9.6-1.9-25.1-2.2-34.3l-.7-16.9 23.4-23.1c33.1-32.7 102.8-96.4 99.4-90.7-7.1 11.7-21.6 30-31.3 39.2-6.5 6.3-6.8 6.8-4.3 6.8 3.7 0 12.6-2.7 18.3-5.6 2.6-1.3 11.3-7.4 19.4-13.5 8.1-6.1 17-12.2 19.8-13.5 4.9-2.4 4.6-2-7.9 10.3-15 14.8-31.5 29.2-64.2 55.7-12.8 10.4-23.3 19-23.3 19.2 0 .5 12.4-4.9 32.5-14.1 25.9-11.8 62.6-30 86.4-42.9 11.8-6.3 21.6-11.4 21.8-11.3.5.6-29.2 29.6-34.2 33.5-2.7 2.1-7 5.1-9.5 6.5-2.5 1.5-3.8 2.7-2.9 2.7 3 0 24.5-4.1 44.8-8.6 11.1-2.5 20.7-4.4 21.2-4.2.5.2-10.8 8.2-25.1 17.8-14.3 9.6-26 17.8-26 18.1 0 .4 3.8.7 8.5.8 4.6.1 9.2.4 10.2.5 1 .2 9.2.7 18.3 1.1 9 .4 17.1.9 18 1 .8.2 5.2.4 9.8.4 4.5.1 8.2.5 8.2.9 0 .5-6.4 2.8-14.2 5.2-26.9 8.1-49.8 16.9-49.8 19 0 .4 1.5 1 3.3 1.4 23.2 4.4 49.7 10.1 49.7 10.6 0 1-10.5 5.6-17 7.4-3 .8-12.7 2.7-21.5 4.1-15.4 2.5-28.7 6.2-32.6 8.9-1.6 1.1-.9 1.6 6.9 4.9 4.8 1.9 15.9 6.7 24.7 10.5 14.8 6.4 30.3 12.2 32.8 12.2.5 0-1.2-1.9-3.8-4.2-4.9-4.3-12.5-13.3-12.5-14.8 0-.5 4.8 1.2 10.8 3.6 29.7 12.5 68.7 19.5 99.2 17.9 6.9-.4 13.2-.8 14-1 .8-.1 4.5-.6 8.2-1 3.7-.3 7-1 7.3-1.4.2-.5-3.7-1.1-8.8-1.4-19.4-1.3-43.8-8.2-62.8-17.8-8.6-4.3-10.1-5.3-8.4-6 1.1-.5 14.4-2.4 29.5-4.4 15.1-2 32-4.2 37.5-5 5.5-.8 14-2 19-2.6l9-1.3-13.5-2.7c-26.9-5.3-61.2-15.5-69-20.4-4.6-2.9-6-5.2-6-9.5 0-4.6 2.6-8.7 6.8-10.9 7.7-3.9 40.4-10.2 63.9-12.3 16.4-1.4 15.9-1.6-14.7-5.3-33.5-4.1-53.6-7.7-63.1-11.3-3.6-1.4-6.9-5.9-6.9-9.3 0-5.5 5.1-9.3 19-14.2 41.3-14.7 51.9-18.6 65-23.9 16.1-6.5 15-6.7-7.2-1.7-14.3 3.2-29.7 7.4-56.8 15.6-15.4 4.7-19.8 5.6-26.3 5.6-4.2 0-8.2-.4-8.7-.9-1.4-1.4 16-18.2 28.8-27.7 10.7-8 27.4-18.6 48.4-30.7 7-4.1 12.6-7.5 12.5-7.6-.1-.1-4.5.9-9.7 2.2-32.3 8.3-55.5 7.2-92.8-4-10.1-3-20.9-6-24-6.6-10.5-1.9-20.7.8-32.6 8.4-3.2 2.1-6 3.6-6.1 3.4-.2-.2.6-3.9 1.8-8.2l2.2-7.8 18.5-14.7c30.8-24.6 95.7-72.8 96.6-71.8.1.1-.2 2.9-.8 6.2zm-1102.9 5.2c20.6 14.7 66.6 49.5 84.6 64 15.8 12.7 15.9 12.9 17.7 18.8 1 3.3 1.7 6.5 1.6 7.1-.2.7-2.8-.3-6.7-2.7-15.9-9.6-25.7-10.6-45.6-4.4-46.6 14.5-68.1 16-102.9 7.1-5.3-1.3-9.6-2.2-9.6-2 0 .1 3 2 6.8 4.1 34.2 19 62.4 38.7 77.7 54.2 7.3 7.5 6.8 8.5-4.2 8.3-6.4-.1-11.6-1.3-29.8-6.7-33.1-10-71.8-19.6-73.1-18.2-.6.6 19.9 8.5 57.1 21.8 18.1 6.5 34.1 12.7 35.5 13.7 6.5 4.9 5.5 13.2-2 16.9-7.2 3.5-25.4 7-56.5 10.8-38.8 4.7-39.2 4.8-22 6.3 17 1.5 33.7 4.2 50.9 8.3 10.7 2.6 13.5 3.7 16.3 6.3 4.9 4.4 5.5 10 1.8 14.4-1.5 1.8-4.4 4.1-6.4 5.1-9.7 5-51.5 16.6-72.4 20.2-3.7.6-6.6 1.3-6.4 1.5.2.3 7.3 1.3 15.8 2.4 19.7 2.6 59.6 8 62.9 8.5 1.4.3 5.2.7 8.5 1.1 3.3.4 6.6 1 7.3 1.4 1.7.9-18 10.7-29.9 14.8-12.4 4.4-30.6 8.2-42.1 8.9-5.5.3-9.4.9-8.6 1.4 4.8 2.6 39.7 4.2 58.8 2.6 24.1-1.9 53-9.3 73.9-18.8 3.5-1.6 6.6-2.8 6.8-2.6.8.8-8.7 12.5-12.7 15.7-2.4 1.9-3.9 3.5-3.3 3.7 1.5.5 17.3-5.3 33.8-12.4 8.3-3.6 18.5-8 22.8-9.8 4.3-1.8 8-3.5 8.3-3.8 1-1-7.5-4.8-14.9-6.7-4-1-12.4-2.6-18.7-3.5-18.5-2.8-31.9-6.6-37.3-10.7-1.5-1.1 1.8-2 25.3-6.8 14.8-3 27-5.8 27-6.1 0-1.9-23.1-10.6-51.7-19.4-6.8-2.1-12.3-4.2-12.3-4.7 0-.4 3.5-.9 7.8-.9 4.2-.1 8.8-.3 10.2-.4 1.4-.2 9.7-.6 18.5-1s16.7-.9 17.5-1.1c.8-.1 5.5-.3 10.3-.3 5.2-.1 8.6-.5 8.2-1-.3-.6-12-8.7-26.1-18.2-14-9.4-25.3-17.4-25-17.6.2-.3 8.7 1.3 18.8 3.6 16.6 3.6 33.6 6.9 44.3 8.6l4 .6-5.5-3.6c-11-7.4-24.6-19.6-36.4-33l-6.1-6.9 7 3.8c33.5 18.4 81.6 42.5 107.5 53.9 6.9 3 15.6 6.9 19.4 8.6 4.7 2.2 6.4 2.6 5.5 1.5-.8-.9-9.5-8.2-19.4-16.3-20.3-16.4-39.3-32.2-47.5-39.5-12.3-11-32-29.9-31.6-30.3 1-1 9.4 4.3 23.3 14.8 15.4 11.6 22.3 15.6 31.2 18.3 10.7 3.2 11 2.4 2.3-6.2-8.2-8.1-15.6-17.1-23.7-28.7l-4.9-7 3.9 3.2c12.8 10.1 59.7 53 89 81.5l17 16.5-.3 13.4c-.1 7.4-.4 16.3-.7 19.9-.2 3.6-.7 10.8-1.1 16-.3 5.2-1.1 15.2-1.9 22.3-1.2 12.1-1.5 13.1-5 18.3-4.9 7.5-18.3 21.3-26.4 27.3-6.6 4.9-19.6 12.3-23.8 13.6-2.1.6-2.1.3 1-5.2 7.1-12.5 18.5-38.9 17.3-40-.7-.8-12.7 1.5-19.6 3.6-5.8 1.8-5.9 1.8-4.9 0 .5-1.1 3.3-3.7 6.1-5.9 4.5-3.7 7.5-5.3 15.8-8.7 2.2-.9 1.6-1.2-5.9-3.2-23.8-6.4-30.1-7.5-45.1-7.5-13.1 0-15.2.2-21.8 2.6-4 1.4-9.4 4-12 5.7-5 3.2-14.9 12.7-14.1 13.5.3.3 2.5-.2 4.9-1 9.6-3.4 22.4-.1 29.9 7.6 8.1 8.4 10.5 23.5 5.3 33.7-2 3.9-2.5 4.2-7.6 4.8-12.4 1.6-22.1-1.8-48.2-16.6-26.5-15.1-41.3-18.6-74.2-17.6-14.1.4-45.6 3.9-46.9 5.1-.2.1 4.3 1.1 10 2 18.1 3.2 38.7 11.1 54.5 21l5.4 3.3-7.9.6c-10.1.7-30.4 6-55.7 14.5l-20.1 6.7 17 .7c32.1 1.2 49.1 8.2 77.4 31.8 5 4.1 8.9 7.6 8.7 7.7-.1.2-3.6-1-7.7-2.6-16-6.1-23.8-7.5-43.4-7.6-18.3 0-21.1.3-51.5 5.6-29.4 5.1-39.9 6-73.5 6.6l-32 .6-4.3-7.5c-14-24.5-20.8-54.1-17.1-74.4.6-3.2 2.7-9.3 4.6-13.4 3.2-6.8 5.4-9.3 22.8-26.5 16.3-16.2 19.7-20.1 22.3-25.6 5.6-11.7 6.1-25.4 1.2-35.3-2.4-5.1-4.3-6.9-9.5-9.5l-3.7-1.8 3.4-2.1c4.6-2.9 11.8-10.6 15.1-16.2 8.2-14.1 9.5-31.3 3.4-45.5-1.2-2.7-6.4-10.6-11.6-17.5-5.2-6.9-10.6-15-12-18-3.3-7.2-4-17.3-1.6-23.6 2-5.4 5.8-8.4 15.4-12.3 4.1-1.6 8.7-4.3 10.4-5.8 7.4-7 9.3-20.4 4.3-30.8-2.7-5.4-8.7-11.4-11.6-11.6-.8 0-.4-.5.9-1 3.7-1.4 19.8-1.4 26.1.1 13.9 3.2 28.5 12.6 36.4 23.4 4.3 5.9 5 6.4 7.1 5.6 14.4-5.5 24.5-17.7 29-35 1.8-6.9 2.4-21 1.2-27.3-.5-2-.5-3.7-.1-3.7s6.8 4.4 14.3 9.7zm433.7-1.6c3.8 1.2 16.1 5.8 27.4 10.4 32.6 13.1 45 16.7 65.5 18.5 28.2 2.7 50.6-2.2 94-20.3 22.5-9.3 28.6-11 37.5-10.4 5.7.4 10.1 1.4 16.3 4 9.4 3.8 24.1 12.9 30 18.5 7.8 7.5 36.4 47.8 48.6 68.5 5.8 10 11.1 20.2 11.1 21.6 0 1.5-21.4 14.9-34.3 21.4-25.4 12.9-46.7 18.7-71.8 19.5-18.5.5-31.7-.8-48.2-5-25.6-6.4-51.4-19-66.7-32.6l-4.4-3.9-6.2 5.3c-15.7 13.2-39.7 25-63.4 30.9-21.8 5.5-48.7 7.1-66.4 4-23.2-4.1-49.5-16.6-71.4-34l-8.3-6.6 5-9.7c6.3-12.2 18.7-31.6 32.4-50.8 21-29.4 27.2-35.9 41.7-44.2 13.3-7.5 20.2-8.6 31.6-5.1zM2265 2009c2.8 1.1 5.8 2 6.6 2 .9 0 5.3 2.8 9.7 6.2 4.5 3.4 7.3 5.8 6.2 5.4-5.6-2.3-16.6-5.5-21-6.2l-4.9-.7 8.1 8.8 8.2 8.8-7.1 2.4c-3.9 1.3-8.4 3.1-10.2 3.9-4.4 2.2-13.6 8.6-13.6 9.4 0 .4 1.9 1.2 4.3 1.9 4.7 1.4 13.7 6.1 13.7 7.1 0 .4-1.1 1.2-2.4 1.8-5.5 2.5-19.8 17.8-20.8 22.2-.4 1.7-.2 1.7 10.8 1.9l8.7.1-7.1 7.4c-3.8 4-8.6 10.4-10.7 14-3.8 6.8-7.9 16.5-7.2 17.2.2.2 2.3-.6 4.8-1.8 5.2-2.6 16.6-3.1 21.7-.9 2.9 1.2 4.4 3.1 2.4 3.1-1.6 0-13.2 11.2-17.7 17-6.6 8.5-14.4 24-12.1 24 .2 0 2.3-.7 4.7-1.5 5.5-2 15.9-3.5 15.9-2.3 0 .5-2.2 3.6-4.8 7.1-5.7 7.3-11.2 16.3-14.3 23.2-2.3 5.4-7.9 21.4-7.9 22.7 0 .4 3.4-.8 7.6-2.7 4.2-1.9 7.8-3.5 8-3.5.3 0-.9 2.6-2.5 5.7-15.1 30-14.7 73.4 1 104.5 2.7 5.4 10.5 17.8 11.2 17.8.1 0 .3-5.9.4-13.1.6-40.5 10.9-77.1 31.5-112.3 1.7-2.9 2-4 1-4.3-2.9-1.1-7.2-5.6-9.4-10.1-1.8-3.7-2.3-6.4-2.3-12.7 0-7.1.4-8.8 3.6-15.6 2-4.2 6.9-12.5 10.9-18.4 12.8-19.2 13.4-21.8 6-30-8.7-9.6-11.5-18.4-9.8-30.6 2.2-16.5 14.6-31.4 34.2-41.2l6.9-3.5 6.9 2.4c8.1 2.7 24.5 6.4 28.7 6.4 1.7 0 3.3.4 3.6 1 .3.5-1.7 6.9-4.4 14.2-7.5 20.1-12.7 36.6-17.1 54.3-5 20.4-6.8 31.4-8 49.7-1.3 20.5-5.4 47.2-10.1 66.6-12.5 51.1-40.1 96.2-88.2 144.1l-14.5 14.4-1.1-3.9c-5.1-19-8.7-42-9.8-61.3-.3-6.4-.7-11.8-.9-12-.5-.5-6.5 8.2-11.7 17.2l-4.9 8.2.7-6.5c1-10.1 5-28.9 12.5-59 12.9-51.8 15.3-69.6 15.4-114 .1-17.3-.3-35.8-.7-41l-.8-9.4 2.1 1.9c1.1 1 2.2 1.6 2.4 1.4.2-.2.7-6.5 1-13.9 1.7-36.2 3.4-50.7 7.6-65.8 4.1-14.6 10.2-24.9 17.5-29.4 3.8-2.3 5.3-2.3 11.5.2zm481.9-.6c8.5 4.4 17 21.3 20.6 41 3.6 20 4.6 39.1 2.6 51.7-3.1 19.4-4 35.8-3.6 64.4.2 15.9.8 33.3 1.4 38.5 3.5 29.2 6.3 43.9 15.5 80.5 6.1 24.5 11.6 51.8 11.6 57.5 0 2-.7 1.3-3.3-3.5-3.7-6.9-11.2-18.1-12.7-19-.6-.4-1 2.1-1 6.7-.1 8.7-.6 14.1-3 31.3-2 13.9-6.7 36.5-7.9 37.8-1.1 1.1-35.1-33.9-45.5-46.8-25.5-31.8-44.7-67.7-55-103.2-5.8-19.9-10.8-48.6-12.1-69.3-2.2-34.5-8.7-63.1-24-104.7-3.5-9.7-6.3-17.8-6.1-18 .2-.2 5.7-1.2 12.2-2.3 6.5-1 15.9-3.1 20.7-4.5l8.9-2.5 7.3 4.1c20.2 11.5 30.7 25.6 31.8 42.9.7 11-2.3 19.2-9.8 27-2.4 2.5-4.6 5.6-5 7-1 4.1 1.8 10 11.9 25.6 13.2 20.2 15.7 28.9 12 41.3-1.6 5.4-7.5 13.1-10 13.1-1.9 0-1.8.9.6 4.7 20 32.9 32 76.8 31.5 115.7l-.1 9.9 2.6-3.1c3.6-4.4 11.3-19.2 14.4-28 9.4-26.3 9-58.3-1.1-83.7-1.9-5-4.2-10.1-5-11.4-1.7-2.7-2.3-2.8 7.5 1.4 3.4 1.5 6.5 2.6 6.7 2.3 1.1-1-3.9-14.8-9.1-25.3-3-6.1-8.1-14.6-11.3-18.9-3.3-4.4-5.8-8.3-5.6-8.6.6-1 9.6.5 15.7 2.6 2.7.9 5.1 1.4 5.3 1.2.8-.7-6.7-15.4-10.9-21.2-4.3-6-13.6-15.5-18.6-18.9-3.1-2.2-1.9-3.1 5.9-4.8 6.1-1.3 14.7 0 18.9 2.7 1.3.8 2.6 1.3 2.9 1.1.8-.8-4.8-13.9-8.4-19.7-1.9-3-6.5-8.5-10.1-12.3l-6.6-6.7 8.9-.1c5-.1 9.6-.1 10.3 0 3.8.5-2-8.1-11.6-17.1-3.9-3.6-8-6.9-9.1-7.3-1.2-.3-2.1-1-2.1-1.4 0-1.1 8.8-5.7 13.8-7.2 2.3-.7 4.2-1.5 4.2-1.9 0-2.2-15.1-10.7-24.2-13.6-3.2-1-5.8-2-5.8-2.3.1-.3 5.2-4.2 11.5-8.5 6.3-4.4 11.3-8.1 11.1-8.4-.4-.3-12.7 1.9-18.6 3.4-4.5 1.1 9.7-7.7 16.2-10.2 7.5-2.7 9-2.9 12.7-1zm-243.2 14c23.5 15.7 56.1 26.9 86.6 29.8l12.7 1.2 2.6 3.4c3.3 4.2 13.8 32.7 19.9 53.6 10.5 36.4 14.1 66.6 10.1 85.4-1.9 9.2-9.5 25-18.6 38.5-8 12.1-24.6 30-36.5 39.4l-7.9 6.3-5.8 22.2c-8.1 31.6-9 34.9-9.5 34.5-.2-.2-1.2-3.5-2.3-7.3-1.1-3.8-2.2-7.6-2.5-8.3-.4-1-4 3.7-9.8 12.4l-9.2 13.8-1.1-7.9c-.7-4.3-2-13.2-2.9-19.7-1.3-8.8-2-11.5-2.9-10.8-.7.6-3.9 5.1-7.1 10-3.3 4.9-6.1 8.9-6.2 8.8-.3-.4-2.8-20.2-3.9-31.5-.3-4-1-7.4-1.3-7.7-.4-.2-2.9 6.2-5.5 14.3-2.7 8.1-5.1 15-5.5 15.4-.4.4-3.3-6.5-6.6-15.3-6.9-18.3-6-18.8-9.5 4.6-1.1 7.7-2.4 14.8-2.8 15.8-.6 1.5-2.2.1-8.7-8.2-4.4-5.5-8-9.9-8.1-9.8-.1.1-.5 3.6-.8 7.7-.4 4.1-.9 9.1-1.1 11-.2 1.9-.7 6.9-1.1 11-.3 4.1-.7 7.6-.8 7.7 0 0-4.1-4.7-9.1-10.5l-8.9-10.6-1.7 11.3c-.9 6.2-1.9 11.4-2.1 11.6-.4.4-10-35.6-15.4-57.7-1.6-6.4-2-7-7.3-11-15.4-11.4-34.4-32.9-44.7-50.4-11.3-19.2-14.5-29.6-14.5-47.4-.1-14.7 1.9-29 6.7-48.9 3.7-15.6 16-53.3 21.9-67.4l3.7-8.7 5.2-.1c10 0 27.6-2.8 41.3-6.4 19.7-5.2 41.2-14.8 54.9-24.4 3.8-2.7 7.2-5 7.5-5 .3-.1 4.2 2.3 8.6 5.3zm-140.5 226.4c6.8 9.4 6.8 10 1.6 17.8-5.1 7.5-9.8 10.2-20.3 11.8-5 .7-9.1 1.3-9.2 1.2-.1-.1 1.1-4.9 2.8-10.6 3.2-11.3 6.1-24.7 8-37.7l1.2-8.2 5 8.7c2.7 4.8 7.6 12.4 10.9 17zm281.8-20.6c0 5 4.9 29.4 8.3 41.1 2.7 9.6 3 11.4 1.7 10.7-1-.5-4.6-1.2-8.1-1.5-3.5-.4-8.3-1.6-10.6-2.7-5.2-2.4-10.7-8.5-12.9-14.4l-1.7-4.4 4.1-5.2c5-6.6 14.4-21.5 16.2-25.7 1.5-3.6 3-2.6 3 2.1zm-1296.5 49.3c60.8 16 83.9 21.4 109 25.4 11.7 1.9 15 2.4 23.5 3.6 2.7.4 11.3 1.2 19.5 2 2.8.2 9.5.7 15 1 5.5.3 12.9.7 16.5 1 3.6.2 11 .7 16.5 1 5.5.3 13.4.7 17.5 1 4.1.2 12.7.7 19 1 6.3.3 14.4.7 18 1 3.6.2 12.4.7 19.5 1 7.2.3 15.9.8 19.5 1 3.6.2 13.5.7 22 1 8.5.4 17.5.8 20 1 2.5.2 12.4.6 22 1 9.6.3 20.2.8 23.5 1 27.7 2 110.1 2.7 132.5 1.2 10.3-.7 20.6-1.7 34-3.3 7.1-.9 27.2-4.3 37.3-6.4 38.5-7.9 58.6-5.3 98.3 12.6 29.2 13 33 14.7 43.6 18.5 30 10.8 56.5 10.6 79.3-.5 5.1-2.5 11.4-6.2 14.1-8.3 7.1-5.7 7.3-5.7 6.8-2.6-2.2 14.5-2.4 42.1-.4 55 2.8 17.7 9.7 36.7 18.4 50.7 5.4 8.7 7.7 10.6 12.6 10.6 3 0 5.1-1.5 16-11.2 6.9-6.1 20-18.7 29.2-28l16.8-16.9 6.2 6.7c9.7 10.2 9.8 10.6 4.7 18.9-2.3 3.9-5.5 8.9-7.1 11.3-7.6 11.1-9.3 27.4-4.3 41 3.1 8.5 4.1 5.9-9.5 23.2-21.7 27.4-41.4 61.6-49.9 86.7-3.8 11-6.7 24.9-7.6 35.8-.3 4.4-1.3 12.5-2.1 18-.9 5.5-1.9 12.2-2.3 15-.9 5.8-1.3 6.8-10 20-28.2 43.1-81.6 117.1-101.6 141-50.1 59.9-96.3 92.4-147.5 103.7-9.1 2-13.2 2.3-31 2.3-23.1 0-31.5-1.2-50.9-7.2-20.2-6.2-38.3-11-48.1-12.8-14.5-2.6-40.7-3.1-57-1-22.4 2.7-30.6 3-40.1 1-16.8-3.4-34.1-12.2-65.9-33.5-48.9-32.8-86.3-49.9-124.6-56.9-19-3.4-26-4.1-81.9-7.7-14.7-.9-34.9-3.3-43.2-5-41.4-8.5-116.7-41.9-179.5-79.5-53.4-32-101-68.5-134-102.7-53.4-55.5-74.2-105.6-62.3-149.9 6.8-25.4 18.9-48.5 37-70.3 14.3-17.2 41.7-41 63-54.5 38.8-24.8 89.7-46.6 140.2-60.1 14.5-3.9 39-9.1 43.3-9.3 1.4 0 22.3 5.1 46.5 11.4zm2364.1-8.9c83.6 16.5 167.6 56.6 215.3 102.8 36.9 35.8 59 80.7 57.6 117.2-1.4 35.7-20.5 72.5-59.8 115.5-55.6 60.9-161 129.4-259.7 168.9-39.3 15.8-60.7 21.3-91 23.5-4.7.3-10.5.8-13 1-2.5.2-9.2.7-15 1-5.8.3-13 .8-16 1-3 .3-9.3.7-14 1.1-56.2 3.9-96.9 19.5-159.5 60.9-51.2 33.9-64.7 38.4-101 33.6-18.6-2.5-41.6-2.7-56.5-.5-12.6 1.9-30.3 6.2-47.9 11.8-25.3 8-39.4 10.1-63.1 9.3-18.6-.6-29.9-2.7-46.2-8.3-42.5-14.7-83.7-46.6-126.6-98.2-25.5-30.6-82.9-111-108.5-151.9-7.8-12.4-10.6-16.2-12.1-16-3 .3-5.1-6.7-16.1-52.6-7.5-31.8-24.1-64.9-48.8-97.9l-9.8-13 2.5-6.1c5.1-12.9 5.6-24.7 1.4-37.2-2.3-6.8-4-9.5-12.1-18.7-5.3-6-5.8-7-4.6-8.5 2.2-3 14.3-15.3 15-15.3.4 0 7.6 7 16 15.6 16.9 17.2 40.6 38.9 44.3 40.5 5.4 2.5 12.3-4.7 20.5-21.6 10.3-21 14.1-40.3 13.6-68-.4-14.9-1.8-29.6-4.1-42.2l-.7-3.8 4 5c11.6 14.7 29.4 26.2 47.8 31.1 5.5 1.5 10.4 1.9 22.5 1.9 13.6-.1 16.8-.4 26-2.8 11.2-2.9 31.6-11 57.3-22.6 27.9-12.7 44.7-17.3 63.2-17.2 12.2 0 18.6.8 41.5 5 30.3 5.7 42.9 7.3 72.5 9.2 16.6 1.1 90.3.7 102.5-.5 2.5-.2 12.8-.7 23-1.1 10.2-.3 21.2-.8 24.5-1 3.3-.2 13-.7 21.5-1 8.5-.3 18-.8 21-1 3-.2 12.3-.7 20.5-1 8.3-.3 17.9-.8 21.5-1 3.6-.2 11.7-.7 18-1 6.3-.3 15.3-.8 20-1 4.7-.3 12.3-.7 17-1 4.7-.3 12.6-.7 17.5-1 54.1-3 67.8-4.4 97-9.6 28.8-5.2 70.3-15.2 137-33.2 5-1.4 9.5-2.5 10.1-2.6.6 0 6.9 1.1 14 2.5zM2338 2325.1c-3.9 15.7-8.2 29.7-12.6 41.2-1.9 4.9-3.3 9.2-3.1 9.4 1 .9 26.4-29.2 35.4-42 2.3-3.2 4.4-5.4 4.7-4.9.4.8 1.5 10.5 3.1 29.2.2 3 .5 11.2.6 18.2.1 7.1.4 12.8.8 12.8.3 0 4.9-11.3 10.1-25l9.5-24.9 3.6 11.2c4.7 14.7 7.2 20.6 11.8 28.6 7.7 13.1 18.3 22.3 30.7 26.6 3.4 1.2 7.7 3.4 9.4 4.9 1.8 1.5 5 3.6 7.1 4.6 4.5 2.3 20.2 7 23.4 7 1.2 0 2.8.7 3.5 1.5 1 1.2 4.5 1.5 19.4 1.5 11.2 0 18.6-.4 19.2-1 .6-.6 4.6-1.9 9-3 11.4-2.7 18.8-5.7 23.9-9.6 2.5-1.8 8-4.7 12.2-6.4 19.1-7.4 31-22.9 40.8-53.2l4.1-12.8 8.9 23.3c12.1 31.9 11.4 31 11.5 14.2.1-7.7.3-16 .6-18.5 1.8-20.2 2.6-27.7 3-28.8.2-.7 4.4 4 9.3 10.5 8.9 11.8 30.1 36.7 30.7 36 .2-.2-2.2-7.5-5.2-16.3-5.5-15.7-13.9-46.2-13-47.1.3-.3 8.9 7.2 19.2 16.6 14.5 13.3 20.3 19.3 25.7 26.8 3.8 5.4 9 12.4 11.6 15.6 8.1 10.4 8 9 1.2 13.1-8.5 5.2-15.6 11.9-18.1 17.2-2.4 5-3 12.8-1.1 16.2 1.1 2.1 1 2.1-2.1 1.4-1.8-.4-8-.7-13.8-.7-16.5.1-23.3 2.8-54.8 21.7-31.9 19.1-45.5 24.4-61.2 23.6-11.7-.5-19.8-4.3-28.7-13.4-3.6-3.7-6.2-5.8-5.9-4.8 3.1 10.3 4.7 24.4 3.2 29.2-1.1 3.3-4.1 2.7-9.1-1.9-8.8-8.1-16.6-22.6-19.6-36.2l-1.2-5.8-2.7 8.8c-3.7 12.4-9.3 22.7-16.2 29.5-6.3 6.2-9.1 7.6-11.5 5.7-2.2-1.9-1.2-12.4 2.1-22.3 1.4-4.2 2.6-7.8 2.6-8.1 0-.2-2.3 2.1-5.1 5-9.6 10.1-19.3 14.5-32.4 14.5-14.1 0-31.4-7-60.4-24.4-29.6-17.8-42-22.3-58.6-21.3-4.4.2-8.8.8-9.9 1.2-1.6.7-1.7.5-1-2.6 1.2-5.5 1.2-8.1-.3-12.6-2.4-7.1-9.1-13.5-22.6-21.7l-2.7-1.7 5.4-6.7c3-3.7 9-11.7 13.3-17.8 6.5-9.1 11.2-14.1 26.2-27.8 10.1-9.2 18.5-16.5 18.7-16.3.3.3-.9 6-2.6 12.8zm152.4 46.8c.3-1.3 1.3-6.4 2.1-11.3s1.6-9.1 1.8-9.2c.1-.2 2.3 4.9 4.7 11.2 2.5 6.3 4.7 11.4 5 11.4.3 0 3.2-4.3 6.5-9.5 6.9-10.9 6.4-11.2 8.5 6.3.8 6.2 1.7 11.1 2.1 11 .4-.2 4.4-4.5 8.8-9.6 4.5-5.1 8.1-8.8 8.1-8.3 0 .6-.9 4.9-2 9.6-1.1 4.7-2 9-2 9.5s2.5-.3 5.6-1.7c3-1.4 5.7-2.3 6-2.1.2.3-.8 3.9-2.2 8.1-3.1 9.4-5.7 11.8-16.2 15.1-20.1 6.3-48.6 5.8-67.2-1.3-7.8-3-9.6-5.2-13.1-15.9-1.6-5.2-2.8-9.7-2.5-10 .3-.2 2.8 1.2 5.7 3.2 2.8 2.1 5.3 3.5 5.6 3.2.3-.3-.2-3.7-1.1-7.7-.9-4-1.4-7.4-1.2-7.6.3-.3 4.4 2.7 9.3 6.5l8.8 7 .6-5.7c.7-5.8 1.8-19.5 1.9-22.1 0-.8 3.6 3.9 7.9 10.4 6.9 10.4 8.1 11.6 8.5 9.5zm-180.7 109.8c.4 3.2.8 11 .8 17.3 0 9.7-.3 12.2-2.1 15.7-1.2 2.4-2 4.3-1.9 4.3 1.6 0 20.6-12.2 29.3-18.8l3.3-2.5-.6 5.4c-.9 7.4-4.2 18.5-7.1 23.8-1.3 2.4-2.3 4.5-2.2 4.6.2.1 10.4-5.5 22.8-12.6s22.8-12.9 23.1-12.9c2 0 2.5 22.5.8 34.9-.6 4.5-.9 8.5-.6 8.7.3.3 2.7-.7 5.4-2.2 6.8-4 18.4-15.9 22.3-22.6 1.7-3.2 3.6-6 4-6.3.5-.3.9 6.6.9 15.2.1 8.6.4 15.9.6 16.2.7.6 13-4.7 19-8.2 8-4.6 16.6-11.1 21.5-16.1 2.4-2.5 4.7-4.6 5.1-4.6 1.5 0 3.2 14.2 2.7 22.9l-.5 9.1 4.1-3.3c9.2-7.2 17.3-16.6 23.4-27 2.2-3.8 4.2-6.5 4.5-6 .3.4 2 4.4 3.8 8.8l3.3 7.9 2.8-5.9c1.5-3.3 3.2-7.3 3.8-8.9l1-3 3.5 5.8c1.9 3.2 5 7.9 6.9 10.5 3.8 5.2 19 20.1 20.5 20.1.5 0 .7-3.7.4-8.3-.5-8 1.2-22.7 2.6-22.7.4 0 2.3 1.6 4.2 3.6 5.9 6.3 18.9 15.3 29.3 20.5 5.5 2.7 10.7 4.9 11.3 4.9 1 0 1.3-3.2 1.3-12.9 0-7.1.3-14.3.6-16l.7-3.2 3.1 5.5c4.5 8.1 11.8 16 19.8 21.6 3.9 2.8 7.6 5 8.1 5 .6 0 .7-1.9.3-4.8-2-14-1.8-39.2.3-39.2.4 0 10.8 5.8 23.1 12.8 12.4 7.1 22.6 12.8 22.8 12.7.1-.1-1.1-2.8-2.7-6.1-3.2-6.4-5.7-15.1-6.5-22.7l-.5-4.7 5.7 4.1c7.4 5.4 14.3 9.8 21.3 13.8l5.7 3.2-2-4c-1.4-3-2.1-6.5-2.3-13.3-.3-9.5 1-23.8 2.3-25 .4-.3 3.8 1.3 7.6 3.5 7.3 4.4 14.7 12.5 29.9 32.7 17.4 23.1 29.1 47.4 33.6 69.5 2.3 11.5 2.8 15.8 3.6 31 1.5 27.4 5.4 44.3 13.1 57.5 1.8 3 4.4 9.3 5.8 14 3.7 12.5 8.6 32.2 8.6 34.7 0 3.2-6.1 7.4-11.4 8-7 .8-12.6-2.4-23.8-13.9l-9.8-9.9v6.8c0 8.9 1.3 13.3 6.1 21.4 8.2 13.7 5.5 25.9-5.6 25.9-4.2 0-8.1-1.8-11.2-5.2-2.6-2.8-7.3-12.5-7.3-15.2 0-1.1-.3-1.7-.6-1.4-.6.7-.8 2.1-2.4 16.8-.7 5.8-1.4 10.7-1.7 11-.8.8-17.5-17.1-23.6-25.3-3-4-7-10.1-8.9-13.5-2.6-4.6-3.7-5.9-4.2-4.7-.3.9-.6 8.3-.6 16.4 0 10.3-.5 16.3-1.5 19.9-1.5 5.1-3.5 7.6-4.3 5.4-.7-2.1-16-24.6-19.6-28.7l-3.5-4v15.4c-.1 15.6-.9 20.8-4.1 27.1-7.7 15-20.9 6.3-36.4-24-5.8-11.3-9.5-17.4-9.6-16-.6 7.9-3.2 26.2-4.1 28.9-.7 2-2.4 5.3-3.8 7.5l-2.5 3.9-3.9-4.4c-6.1-7-13.1-18.1-16.2-25.9-3.8-9.4-4.6-7.8-4.8 9.6-.2 13.5-.2 13.6-3 16-5.1 4.3-9.5 4.4-15.8.2-3.4-2.4-9.9-11-9.9-13.3 0-1.4 13.9-18.3 25.1-30.4 4.3-4.7 7.7-8.6 7.6-8.7-.1-.1-7.6 1.5-16.6 3.7-9.1 2.1-16.6 3.7-16.8 3.6-.1-.2 7.2-8.3 16.2-18.1 9.1-9.8 16.5-17.9 16.5-18.1 0-1.3-38.7 11.2-49.8 16.1l-5.4 2.4 2.2-3.3c5.5-8.2 16.3-34.8 14.7-36.3-.2-.2-8.1 5.6-17.6 13.1-9.4 7.4-17.5 13.5-17.9 13.5-.5 0-3-6-5.6-13.3-2.6-7.3-5.1-13.9-5.6-14.7-1-1.7-2.8 2.1-8.4 18.7l-4.2 12.2-9.5-7.3c-5.3-4.1-12.4-10-15.8-13.1-3.4-3.2-6.4-5.6-6.7-5.3-.7.8 5.5 17.6 9.7 26.1 4.4 8.8 4.4 8.8 2.7 8.2-2.2-.7-29.1-4.5-29.5-4.1-.5.4 9.3 8.9 16.9 14.5 3.2 2.4 9.3 6.1 13.5 8.3l7.8 3.9-14-.7c-7.7-.3-14.2-.6-14.5-.6-2-.1-1.7.7 1.9 4.9 7.3 8.2 13.6 24.4 12.9 33-.2 3-.9 3.9-3.8 5.4-4.9 2.5-8.1 2.9-11.7 1.4-5.2-2.2-6.4-5.8-6.1-19.2.1-6.8-.2-12.6-.8-13.6-.9-1.5-1.5-.8-3.7 5-3.1 7.8-10.5 19.7-16.4 26.2l-3.9 4.4-4.2-6.3c-2.3-3.4-4.9-8.7-5.8-11.8-1.6-5.4-2.2-19.1-.9-21.2.3-.5.3-1-.2-1-1.8 0-8.9 11.2-14 21.9-6.7 14-9.9 18.9-15 22.4-7.4 5.1-12.7 3-18-7-4.9-9.3-7.1-17.2-7.2-26.3l-.1-4.5-4.7 5.4c-4.1 4.7-10.2 12.9-13.4 18.1-.8 1.3-1.1 1.2-2.4-.4-4.9-6.3-8.2-23.5-6.6-33.7.6-3.4.9-6.4.7-6.6-.1-.2-2.6 3.4-5.4 7.9-8.2 13.3-28 36.4-29.7 34.6-.3-.3-.1-5.5.6-11.4 1.2-11.6.8-22.8-1.1-28.2-.7-1.8-1.4-3.1-1.6-2.9-.3.2-1.6 4.4-3 9.3-3.2 11.2-9.2 24-12.9 27.6-4.7 4.7-9.8 3.1-13.6-4.4-2.3-4.6-2.1-10.6 1.2-30.8 1-6.3 1.9-14.9 1.8-19 0-7.4 0-7.5-1.7-5-4.3 6.2-11.6 14.2-15.4 16.8-4.1 2.8-11.5 5.8-12.3 5-.7-.7 8.4-34.3 13.4-49.9 2.8-8.6 5.1-15.9 5.1-16.2 0-.3-1.3-.9-2.8-1.5l-2.8-1-.2-23.3c-.2-36.3 2-49 12.2-70.4 8.6-18 18.7-32.6 39.5-57.4 5.8-6.9 11.3-13.6 12.1-14.9 1.3-1.9 14-9.9 16.2-10.1.4-.1 1 2.5 1.5 5.6zM2769 2820c2.3 14 4.4 25.8 4.6 26.2.2.3-.2 5.1-1 10.5s-1.7 12.5-2 15.8c-.6 6.2-2.6 29.4-2.6 30.7 0 .5-1.8.8-3.9.8-2.2 0-7 .7-10.8 1.6-12.1 2.8-17.3.3-19.4-9.3l-1.2-5.4-3.3 9c-3.1 8.8-8.9 20.1-10.2 20.1-2.6-.1-13.7-19.7-16.8-29.5l-1.8-5.8-1.2 9.5c-.7 5.4-2.4 12.6-4.1 16.9-2.8 7.1-9 17.9-10.4 17.9-.4 0-.9-1.5-1.3-3.3-1.9-10-9.7-23.8-18-32.2l-6-6-.7 8.1c-.9 9.9-2.2 15-6 22.8-2.8 6-11.3 17.6-12.8 17.6-.5 0-1.1-2.2-1.4-4.8-1.3-11.5-8.5-26.3-16.9-35.2l-4.2-4.5-1.2 7.7c-2.7 17.2-9.9 32.3-21.6 45.3l-4.4 4.9-1.8-4.3c-.9-2.4-3.4-6.9-5.5-10-4.4-6.5-16.7-18.4-18.4-17.8-.6.2-1.4 1.7-1.8 3.4-.9 4.7-4.5 11.5-8.6 16.2l-3.6 4.3-1.9-2.3c-5.4-6.9-15.9-21.2-19.5-26.5l-4.1-6.1 16.1-3.7c8.9-2 21.3-5.1 27.7-6.8 13.4-3.7 14.1-3.2-11.3-7.4l-16.8-2.7 3.3-2c7.3-4.5 16.5-10.8 19.8-13.6l3.5-3-9.5 2.4c-9.7 2.4-30.9 6-31.5 5.3-.2-.2.9-4.1 2.6-8.6 1.6-4.6 3.2-10.8 3.6-13.9l.6-5.5-4.9 5.2c-2.6 2.8-6 6-7.5 7l-2.6 1.9 3.4-11c3.3-11.1 6.3-26.3 6.3-32.9l.1-3.5 2.9 3.5c5.9 7 11 18.7 14.7 33.7l.8 3.3 9.4-13.7 9.5-13.7 1.6 5c2 5.8 8.1 18.2 11.7 23.6l2.6 3.8 1.5-2.2c.9-1.2 3.5-7.3 5.8-13.5 2.3-6.3 5-12.6 5.9-14l1.7-2.5 2.8 3.3c7.4 8.8 12.8 21 13.7 31.1.3 3.2.9 5.5 1.3 5.3.4-.2 1.3-2.5 2-5.1 2.8-9.9 13.6-22.6 22.6-26.4 2.5-1.1 6.6-2 9-2 6 0 10.6 4.3 17.9 16.6 3.1 5.2 6 9.4 6.5 9.4.9 0 1.8-2 10.9-22.5 5.8-13.2 8.6-18.4 9.4-17.4 5.3 6.4 12.5 20.6 16.8 32.9l3.3 9.4 1.2-4c.7-2.1 2.9-9.1 4.8-15.4 2-6.3 4.5-13 5.6-14.8 5.5-8.9 17.8-5.2 21 6.3 1 3.7 1.1 6.3.2 11.8-.6 3.9-.9 7.3-.6 7.6.8.9 7.4-14.9 10.7-25.9 1.9-6.3 4.5-16.6 5.8-22.7 1.3-6.2 2.7-10.9 3-10.5.4.4 2.6 12.2 4.9 26.2zm-539.3-1.7c2.3 8.1 11.5 27.9 15.3 32.7l2 2.5-.7-4.5c-.4-2.5-.8-7-.8-10 .1-9.4 5.6-16.2 13.3-16.4 7.6-.2 8.2.9 19.1 36.4.7 2.2 1 1.7 3.1-4.5 4.4-13.1 15.8-35.5 18.2-35.5 1.3 0 4.4 7.8 7.1 18.1 1.4 5.2 3.4 11.4 4.5 13.9l1.9 4.5 2.1-4.7c7.2-16.4 26.2-23.1 40.2-14.3 4.9 3.1 9 8.6 16.1 21.6 2.9 5.5 5.6 9.9 6 9.9.3 0 2.2-5.7 4.3-12.7 2-7 4.9-15 6.2-17.8 2.6-5 6.1-9.5 7.5-9.5.5 0 4.7 5.1 9.5 11.4 4.9 6.3 9.1 11.3 9.6 11 1.4-.9 7.7-12.3 9.5-17.4 1-2.7 2.1-5 2.5-5 .4 0 3 3.4 5.8 7.5s6.8 9.9 8.9 12.9l3.8 5.5 2.1-8.6c2.1-8.5 9.1-24.1 11.7-26.3 1.1-.9 1.5-.4 2 2.7 1.8 12.1 3.9 21.6 6.5 29.6 1.6 5 2.8 9.3 2.5 9.5-.2.2-3.5-2.8-7.4-6.6-5.6-5.4-7.1-6.5-7.1-4.9 0 3.4 3.1 14.9 5.6 20.4 2 4.7 2.1 5.3.6 5.3-3.6 0-26.1-4.1-32.7-5.9-3.8-1.1-7.1-1.8-7.3-1.7-.4.5 12.1 9.6 19.6 14.3l6.2 4-16.7 2.8c-23.3 3.9-23 3.8-16.2 5.8 7.2 2.1 35.7 9.2 43.2 10.7 6.5 1.3 6.8 2 3.6 8.3-2.7 5.3-19 26.6-20.5 26.6-2.6.2-9.5-10.2-11.7-17.5-.7-2.6-1.9-5-2.5-5.2-.6-.2-4.9 3.4-9.5 8-6.1 6.1-9.4 10.4-12.4 16.2l-4 7.9-6.2-7.4c-10.5-12.7-17.6-29-19.7-44.9l-.7-5.5-5.3 5.8c-7.9 8.5-16.4 27.3-16.4 36.4 0 3.4-1.2 2.8-5.9-3-8.4-10.3-13.2-22.8-13.5-35.3 0-4.1-.4-7.4-.8-7.4-1.6 0-8.2 6.7-12.2 12.4-5.7 7.9-8.5 13.5-11.1 22.1l-2.2 7-3.3-4.7c-6.7-9.4-11.7-24.7-12-36.8-.1-3.2-.3-3-2.4 3-1.3 3.6-3.7 9.2-5.4 12.5-2.9 5.8-10.2 16.5-11.2 16.5-1.2 0-6.6-10.3-10-19.4l-3.8-9.9-.7 4.4c-1.7 10.2-5.9 12.9-16.8 11-3.9-.6-7.3-1.3-7.5-1.5-.5-.6-1-4.9-1.7-15.6-.9-15.6-3.7-38.7-7.3-60.8-.7-3.8-.5-7 .6-11.7.9-3.6 1.8-6.5 2.1-6.5.3 0 1.6 3.7 2.8 8.3zm544.2 165.6c2.4 11.2-2 47.1-9.5 79.1-2.6 11.2-7.5 28.5-9.4 33.5-1.2 3.2-1 3.6-10.8-19.9-.6-1.4-1.8 1-4.6 9.8-3.7 11.6-13 31.6-14.7 31.6-.5 0-.9-.8-.9-1.9 0-6-10.8-35.3-12.1-32.9-.3.7-1 3.1-1.4 5.3-.9 5.3-5.9 14.5-9.9 18.4l-3.3 3.2-.7-4.8c-1-7.8-4.4-16.6-9-23.4-2.3-3.5-4.6-6.3-5.1-6.2-.5.1-1.5 3-2.2 6.5-2.8 14.1-9.5 29.2-18.5 41.8l-5.3 7.5-.7-14.5c-.7-15.4-2.3-22.9-7.3-33.8l-2.7-5.7-2.2 6.5c-1.2 3.6-3.4 8.5-4.9 11-3.2 5.5-11.3 14.7-12.1 13.9-.4-.3-.1-3 .5-6 2.1-9.6-.6-24-6-32.9l-2.1-3.5v4.5c-.2 16.7-6.4 39.7-14.8 55.3-4.8 9-15.1 23.7-16.5 23.7-.5 0-.5-3.7-.1-8.3 1.1-12.4.8-19.3-1.1-24.3-.9-2.5-2-4.3-2.3-3.9-.3.3-1.4 3.7-2.4 7.7-1 3.9-3.2 10.3-5 14.2-3.1 6.9-9.9 17.9-11.7 19-.4.3-1.6-2.4-2.5-6.1-2.7-11-10.5-23.2-10.6-16.5 0 .9-.9 3.7-2 6.1l-2.1 4.4-5-8.2c-2.8-4.5-4.9-8.4-4.7-8.6 2-2 23.4-2.7 31.8-1 3.5.7 3.4.7-2.3-3.9-7.5-5.8-15.2-10.2-24-13.6-3.8-1.5-6.5-3-6-3.3 1.6-1 13.5-2.7 18.7-2.7h5l-11.9-12c-6.5-6.6-11.6-12.2-11.3-12.5.7-.7 19.7 2.3 27.7 4.5 4 1.2 7.6 1.9 7.8 1.6.7-.7-15.7-14.4-24.4-20.3-6.4-4.3-8.3-6.2-8.3-8 0-2 6.8-32.4 7.4-33 .1-.2 4.5 7 9.6 15.9 8.2 14.1 9.5 15.8 10.1 13.7.5-1.3 2-10.1 3.4-19.4 2.7-17.5 3.4-20.9 4.1-20.3.9 1 11.6 30.4 14.7 40.8 2 6.3 3.8 10.8 4.1 10 .3-.8 2.3-11.8 4.5-24.4 2.3-12.6 4.3-23.1 4.5-23.4.7-.6 6.7 9 11 17.6 4.7 9.4 7.2 16 10 27l2.2 9.1 2.3-7.2c5.1-15.9 20.5-52.7 22.1-52.7 1.3 0 13.8 26.2 17.2 35.9 1.7 5.2 3.3 9 3.4 8.5.2-.5 2.9-11 6-23.4 3.1-12.4 5.9-22.7 6.1-23 1.2-1.3 12.6 15.5 18.7 27.6 2.4 4.7 4.7 8.1 5 7.6 3.2-5.1 9.9-29 11.2-39.6.6-5.2.8-5.7 2-4.2 2.3 3.2 7.3 18.4 9.2 27.8l1.8 9.1 4.1-9c4.7-10.3 8.6-21.9 10.3-31.3.7-3.6 1.6-6.8 1.9-7.2.4-.4 2.9 7.8 5.5 18.3 2.8 10.7 5.3 18.5 5.7 17.7.3-.7 3.3-11.5 6.5-24 3.2-12.6 6.1-22.2 6.5-21.5.4.6 1.2 3.6 1.8 6.6zm-529.5 7.6c1.2 7.8 5.5 21.3 10.4 32.3l4.6 10.7 1.6-8c2.2-10.7 4.6-18.5 7.7-25.4l2.6-5.6 1.8 10.2c1.8 9.8 6.2 24.9 9.5 32.9l1.6 3.8 5.2-10.1c5-9.6 14.4-24.1 17-26.2.9-.8 2.6 4.9 7.1 22.9 3.2 13.1 6.2 23.7 6.6 23.4.4-.2 1.1-1.9 1.5-3.6 1.8-8.4 15.5-38.5 18.3-40.3 1.5-.9 12 23.1 19.6 44.9l5.2 14.8 1.2-6.2c2.6-13 10.1-31 17.9-42.7 3-4.5 3.7-5.1 4.3-3.6.6 1.7 6.4 34 7.6 42.6.3 2.1.9 3.9 1.3 4.2.3.2 1.9-4 3.4-9.3 2.5-8.7 10.2-30.2 13.9-39.1 1.8-4.3 2-3.9 4.7 13.4 3.1 20 3.9 24.7 4.4 25.2.4.4 2.4-2.8 13.1-21.5 2.5-4.5 4.8-8.2 5-8.2.2 0 4.7 23 6 31.1.4 2.5-.3 2.9-11.3 8-16.6 7.5-28 15.1-20.2 13.4 1.8-.4 10.5-.4 19.2 0l16 .7-12.3 12.4-12.4 12.4h4.8c5.9 0 18.9 1.9 20 2.9.4.4-1.2 1.3-3.5 2-8.8 2.7-27 13-30.7 17.5-1.2 1.4-.9 1.5 3.5.8 6.3-.9 17.4-.9 24.7.2l5.8.8-1.7 2.6c-1 1.5-3.3 5.1-5 8l-3.3 5.4-1-3.9c-.6-2.1-1.1-4.8-1.1-6.1 0-1.2-.3-2.2-.8-2.2-1.8 0-8.5 13.6-10.2 21l-1.3 5.4-2.9-3.4c-4.4-5.2-12.6-22.6-14.5-30.5-.9-3.9-1.9-7.4-2.3-7.8-1.1-1.3-3.9 8-4.2 13.8-.1 2.7.1 9 .6 14l.8 9-2.2-2c-4.4-3.9-15.6-22.1-19.9-32.4-4.9-11.8-8.6-27.4-9.7-40.6l-.7-9-3.3 7c-5.1 10.8-6.4 24-3.4 33.7.9 2.7.9 2.7-1.5 1.2-5.2-3.4-13-15.6-16.5-25.9l-1.7-5-2.1 4.2c-4.6 9-7.3 21.1-8 35.8l-.7 14-4.7-6.5c-9.6-13.5-17.7-32.2-19.4-44.8-.3-2.8-1-5.2-1.5-5.2-1.3 0-8.7 11.4-10.8 16.9-1.1 2.7-2.5 8-3.2 11.7l-1.2 6.8-2.8-3.4c-6.1-7.3-15.9-29.7-15.9-36.5 0-7.2-4.3 4.8-5.5 15.5-1.2 10.6-1.4 12.6-2 22.5-.4 5.5-.9 10.2-1.1 10.4-1.5 1.5-16.3-36.8-20.9-54.2l-1.8-6.9-2.4 6.3c-1.3 3.5-2.5 6.4-2.7 6.6-.4.5-4-14.8-6.6-28.4-2.1-11-5.3-35.3-4.7-35.9.2-.2 1.2 3.1 2.1 7.4 1 4.2 2.2 8.3 2.6 9 .6 1.2 7.5-22.9 9.6-33.5.8-4.3 2-3.4 2.8 2.2zm5.2 210c.9 6.6 1.9 12.5 2.3 13.2.4.8 2.7-1.4 6-5.7 4.5-5.7 16-16.5 16.7-15.7.1.1 1.6 11 3.4 24.2 4.2 32.5 3.3 30.3 8.8 20.6 4.9-8.6 15.7-23.1 17.1-23.1.5 0 1.6 2.9 2.5 6.4.9 3.6 3.2 10 5.1 14.2l3.6 7.8 5.7-10c6.1-10.4 13.1-20.4 14.4-20.4.4 0 .8 1.1.8 2.4 0 6.6 5.1 23 10.4 33.5l2.7 5.3 4.5-6.7c6.2-9.5 12.6-16.7 21.3-24.2l7.6-6.5.6 6.9c.6 7.4 3.7 18.5 5.1 18.1.4-.2 5.7-7.6 11.7-16.6l10.8-16.3.7 8c.7 8.5 3.4 20.3 6.1 26.7l1.7 3.9 1.8-7c3.2-12.6 7.4-21 15.3-31.3l4.1-5.4 1.8 6.7c1 3.7 2.3 7.6 2.9 8.6 1.7 3.2-5.7 15.5-15.5 25.7l-4.1 4.3 7.5-3.2c7.5-3.2 20.7-7.9 22.1-7.9.4 0-1.2 2.9-3.7 6.5-5.1 7.7-13 23.3-12.1 24.1.3.3 4.5-1.5 9.3-4 4.8-2.5 8.9-4.4 9.1-4.3.2.2-.8 3.2-2.2 6.6-3.8 9.2-8.2 27.4-9 36.8-.4 4.6-1 8.3-1.4 8.3-.3 0-1.8-2.2-3.3-4.9-3.1-5.4-5.8-14.8-5.8-20.1v-3.5l-2 2.5c-4 5-9.9 18.1-11.6 25.7l-1.7 7.7-2.9-3.4c-10.2-12-14.6-32.7-10.4-48.8 2-7.9 2-7.5-.6-6.1-12.5 6.4-23.5 21.3-26.2 35.1-.6 3.2-1.5 5.8-2 5.8-1.6 0-7.9-7.4-9.7-11.5-1-2.2-2.1-6.4-2.5-9.3l-.7-5.3-3.7 3.6c-4.5 4.4-8 11.2-9.5 18.4l-1.1 5.5-7.1-7.2c-10-10-17.3-25.3-17.3-36.5 0-2-.4-3.7-.9-3.7-1.6 0-8.3 8.3-10.3 12.8-1.1 2.4-2.5 7.5-3.1 11.3l-1.2 7.1-4.6-6.4c-5.5-7.5-7.9-12-7.9-14.8 0-2.9-1.4-2.5-6 1.6-5.4 4.9-8 9.4-10.7 18.4-1.2 4.1-2.2 6.9-2.2 6.3-.1-1.8-13.2-15.4-14.2-14.7-.5.3-2.7 3.7-5 7.6l-4.2 7.2-4.3-15c-2.3-8.2-7.9-25.7-12.4-38.9-6.3-18.3-8.1-24.7-7.6-27.3.8-5 6.1-15.9 10.9-22.2l4.2-5.5.3 3c.1 1.6.9 8.4 1.8 15zm504.9-1c5 10.1 8.2 24.7 7.1 32.4-.3 2.5-2.6 10.6-5 18-10.7 32.7-17.8 61.5-18.9 76.6-.4 5.1-6.3 23.3-7.2 22.3-.1-.2.4-6.4 1.2-13.8 2.8-25.5.4-49.7-5.5-57l-1.8-2.2-7.1 7.7-7.1 7.7-.7-4.1c-1.1-6.4-6.1-15.5-11-20-5-4.6-6.5-5.1-6.5-2.1 0 2.9-3.3 9.1-8.3 15.6l-4.2 5.4-.8-6.3c-.4-3.4-1.8-8.5-3.1-11.3-2.6-5.7-9.3-13.7-10.7-12.8-.5.3-.9 2.2-.9 4.3 0 9.8-7.5 25.5-16.6 34.8-3.4 3.5-6.6 6.3-7.2 6.3-.5 0-1.2-1.9-1.6-4.3-1-6.1-4.9-13.6-9.6-18.2l-4-3.9v3.7c0 5.5-3.7 14.3-8 18.9-2.1 2.2-4.3 3.7-4.8 3.4-.5-.3-1.2-2.6-1.5-5-.9-6.4-5.6-16.2-11-22.7-4.2-5.1-16.4-14.6-17.4-13.5-.2.2.3 3 1.3 6.2 2.2 7.6 2.1 21.3-.1 29.1-2 7.1-7.8 18.3-10.9 21.2l-2.3 2.1-2.1-8.5c-2.1-8.5-6.3-18-10.5-23.7l-2.2-3-.7 5.9c-.8 7.5-3.9 15.7-8.2 21.7l-3.3 4.7-.7-7.3c-1.2-11.8-4.4-26.1-8.5-37.8-2.2-6.1-3.7-11-3.4-11 .3 0 4.5 2.1 9.4 4.6 5 2.6 9.1 4.5 9.3 4.3.7-.7-8.3-18.1-12.5-24.3-2.2-3.2-3.8-6.1-3.6-6.3.5-.4 16.3 5.1 23.5 8.3 3 1.3 5.7 2.3 5.9 2.1.4-.5-5.5-11.2-11.9-21.7l-4.6-7.5 2.2-7.9 2.3-8 5.1 7c6.6 8.8 11.9 19.8 14 28.5 1 3.8 2 6.9 2.3 6.9 2.1 0 6.7-17.7 7.7-29.4l.7-7.9 10.9 16.6c5.9 9.2 11.2 16.7 11.6 16.7 1.5 0 4.2-10.1 4.9-17.7l.6-7.4 6.5 5.4c8.5 7 15.7 15 21.9 24.3l5.1 7.6 4-8.4c4.2-8.9 9-24.2 9-28.9 0-1.5.4-3.1 1-3.4 1.1-.7 10 11.8 15.7 22.3l4.2 7.7 3.6-7.8c1.9-4.2 4.3-10.6 5.3-14.2.9-3.6 2-6.5 2.3-6.5 1.9 0 13.4 15.8 18.6 25.5 2 3.7 3.4 5.4 3.7 4.5.4-1.3 1.7-10.7 5.8-43.2l1.1-8.7 3.1 2.2c4.4 3 13.2 12.2 16.3 16.9 1.8 2.7 2.9 3.5 3.4 2.6 1-1.9 2.7-13.1 3.5-22.7l.7-8.5 3.4 4c1.9 2.1 5.4 7.9 7.8 12.9zm-465 181.7 7.5 15.2 5.1-10.8c4.2-9 5.3-10.6 6.3-9.5.7.8 4.6 6.8 8.6 13.4 8.6 14 17.8 27.5 18.9 27.5.4 0 3.1-5.2 6.1-11.5 2.9-6.3 5.6-11.5 6-11.5.5 0 2.9 3.6 5.5 8s4.8 8 5 8c.2 0 1.7-2.5 3.5-5.6 3-5.4 10.5-14.4 12-14.4.4 0 1.5 2.1 2.5 4.7 3.1 8.5 10.5 22 15.9 29.3 3 4 5.7 7.2 6.1 7.3.4.1.9-1.6 1.1-3.8 1.4-15.5 5.7-28.2 13.7-40.2l5.1-7.8.7 7.5c.8 8.6 2.7 14.4 7.1 21.7 3.4 5.6 4.8 5.9 4.8 1.2s4.7-17.6 9.2-25.7c2.3-3.9 4.4-7.2 4.8-7.2.3 0 1.2 2.2 1.9 4.8.6 2.7 2.3 6.5 3.7 8.5 1.3 2 2.4 3.9 2.4 4.2 0 .4-2.9 5-6.4 10.3-6.3 9.5-9.6 15.9-11 21.4-.7 3.1.4 3.7 2.5 1.2 1.8-2.2 12.3-9.6 19.2-13.4l5.8-3.2-.7 4.9c-1.1 8.3 3.4 33.2 6.5 36.5.4.4 3.2-4.3 6.4-10.4 3.1-6.1 5.7-10.5 5.7-9.6 0 .9-.9 6.7-1.9 13-1.5 8.7-2.9 13.2-5.9 19.2l-4 7.9-3-6.4c-5.2-11.2-8.1-23.2-8.2-33.9v-4.5l-2.1 2.5c-5.5 6.7-14.2 21.3-17.1 28.7-1.8 4.6-3.8 8.3-4.4 8.3-1.8 0-7.2-6.4-9.3-11-1.1-2.5-2.1-6.4-2.1-8.8 0-2.3-.3-4.2-.6-4.2s-2.5 1.4-4.9 3.1c-4.5 3.3-7.8 7.5-11.2 14.2l-1.9 3.9-4.8-5.3c-2.6-2.9-5.7-7.1-6.8-9.3l-2.1-4-2.3 2.8c-1.3 1.5-2.4 3.4-2.4 4.2 0 2.9-2.1 1.3-7-5.4-5-6.6-13.1-21.4-14.3-26.1l-.6-2.5-1.9 2.5c-5.6 7.1-9.3 18.7-9.4 29.3l-.1 7.5-3.7-1.9c-5.9-3-9.9-6.9-13.3-12.8l-3-5.5-5.5 6.2c-3 3.3-5.7 6.1-6.2 6.1-1.3 0-8-14.3-10.3-22.4l-2.4-7.9-2 2.6-2 2.6-1.7-5.7c-2.6-8.3-8.9-22.9-16.3-37.6-5.6-11.2-7-15.6-4.8-15.6.3 0 3.9 6.8 8 15.2zm423.9-10 3.5 4.7-5.5 11.8c-12.2 25.9-17.1 40.5-18.1 54.7l-.6 7.9-6.3-16.9c-3.5-9.3-6.6-19.1-7-21.8-.7-4.6-.8-4.8-1.9-2.5-1.8 3.4-3.3 12-4 22.4-.7 10.3-1.3 14.2-2.8 16.9-.9 1.8-1.5 1.4-6.7-4.4l-5.6-6.3-3.1 5.5c-3.4 5.9-7.4 9.8-13.2 12.7l-3.6 1.9-.1-7.2c0-8.4-3-18.7-7.5-26.5l-3.2-5.5-4.3 9.3c-4.1 8.8-10 18.3-15 24.4l-2.3 2.8-1.4-3.3c-.8-1.8-2.1-3.9-2.9-4.6-1.4-1.1-2-.5-4.6 4-1.6 2.9-4.8 7-7 9.1l-3.9 3.9-1.1-3.1c-1.8-5.1-7-11.9-11.6-15.1-4.8-3.2-5.6-2.8-5.6 2.8 0 4-4.3 12.3-8.3 16.1l-3.6 3.4-1.1-2.9c-4.7-12.8-9.6-21.9-17.4-32.3l-4.1-5.5-.7 8.5c-.8 10.6-3 19.4-7.5 28.9l-3.4 7.5-3.3-6.6c-1.8-3.6-4.4-8.1-5.9-10-1.7-2.2-2.9-5.6-3.6-9.9-1.6-10.4-2-14-1.5-14 .2 0 2.8 4.8 5.8 10.7l5.4 10.8 1.5-3.5c3.5-8 5-16.6 5.1-27.7.1-6.2.2-11.3.3-11.3 1 0 17.9 10.8 21.8 13.9 3.3 2.7 5.1 3.6 5.3 2.7.4-1.9-3.7-12.5-9.3-23.7l-4.8-9.7 3.2-6.3c1.7-3.4 3.1-7 3.1-8 0-3.6 1.7-2.7 4.9 2.6 4.4 7.3 7.7 15.5 9.7 24.4 1.5 6.9 1.8 7.3 3.1 5.5 4.7-6.2 9.1-18.3 9.5-26.1.2-2.9.6-5.3 1.1-5.3.9 0 6.6 8.8 10.1 15.7 3.4 6.9 7.2 20.1 8.1 28.7l.7 6.9 2.4-2.9c7.3-8.7 17.4-26.5 20.3-35.7.7-2 1.6-3.7 2-3.7 1.7 0 10 10 12.5 14.9 1.5 2.8 2.8 5.1 3.1 5.1.2 0 2.5-3.6 5.1-8 2.5-4.4 4.9-8.2 5.3-8.4.4-.3 3.2 4.9 6.1 11.5 3 6.5 5.7 11.9 6.2 11.9 1 0 12.2-16.4 19.8-29 8-13.2 8.7-14.1 9.4-10.9.3 1.3.8 6.6 1.1 11.8.3 5.1.8 9.7 1.1 10.2.3.5 3.1-3 6.2-7.8 9.2-14.3 16.6-25.3 16.8-25 .1.1 1.8 2.3 3.8 4.9zM2361 3500.9c0 1 1.8 7.7 4 14.8 2.2 7 4.3 14.7 4.7 17 .3 2.4.7 4.3.9 4.3.2 0 6.1-4.1 13.2-9 12.2-8.7 28.8-18 31.9-18 1 0 1.3.6.8 1.7-2.2 5.8-2.7 13.1-2.2 29.3.3 9.6 1 18.6 1.4 19.8.9 2.3 1 2.2 2.8-2 1.1-2.4 5.6-7.9 10-12.4 8.3-8.4 16.7-13.8 26-16.8 5.8-1.8 17.4-3.6 19.3-2.8 2.2.8 3.3 3.7 18.7 46.1.3.8.8 1.2 1 .9.3-.3 3-7.6 6-16.4 6.8-19.6 11.5-30.2 13.5-30.7 2.8-.7 13.4.3 19.4 1.8 16.5 4.1 33.8 17.3 40.5 30.7 1 2.1 2 3.5 2.3 3.3.9-1-.3-17-1.8-23.5-.8-3.6-2.6-8.9-3.9-11.8-2.9-6.3-2.8-6.3 9.2-2.1 9.5 3.4 19.4 8.1 28.4 13.5 6.2 3.7 7 4 6.4 2.1-.2-.6-.6-5.9-.9-11.5l-.6-10.4 4.3.7c14.2 2.2 43.7 10.8 43.7 12.8 0 1.9-9.1 18-14.8 26.2-8.5 12.2-24.4 33.6-24.7 33.3-.2-.2.1-3 .7-6.3.5-3.3.7-8.7.3-12-.8-7.9-4.3-18.5-5.8-17.9-1.8.7-7.6 8.4-10.9 14.5-1.7 3-5.8 11.7-9.3 19.4-3.4 7.7-7.1 15.5-8.3 17.4l-2.1 3.5-1.1-3c-5.6-15.5-13.8-25.9-26.2-32.9-5.3-3-6.2-3.1-4.8-.4 2.4 4.3 4.1 11.8 4.7 20.1.3 4.9.3 8.8-.1 8.8s-3.8-2.6-7.4-5.7c-9.4-7.9-30.5-21.3-33.7-21.3-.3 0 .3 1.7 1.4 3.8 5.9 11.6 6.7 27.9 2 39.6-1.3 3.3-2.8 6.1-3.4 6.2-.5.2-3-2.8-5.4-6.7-2.5-3.8-7.6-10.3-11.5-14.5l-6.9-7.6-3.1 5.8c-1.7 3.2-5.2 8.1-7.7 10.8l-4.7 5.1-1.6-5.5c-2.4-8-5.4-23.4-6.2-31.9l-.7-7.4-1.8 2.4c-4.4 5.8-12.1 21.2-15.3 30.7-1.9 5.7-3.6 10.6-3.9 10.8-.8.8-12.5-12.6-17.2-19.7-2.4-3.7-5.9-9.7-7.7-13.3-1.8-3.6-3.5-6.6-3.8-6.6-.3 0-2.1 4.3-3.9 9.6-2.3 6.4-3.7 9.1-4.2 8.2-1.8-3.3-5.1-17.5-7.9-34.3-2.9-17.3-6.1-31.1-8-34.4-.8-1.3-.9-1.1-1 .9 0 3.6-4.2 12-8 16.4-2.9 3.2-12.2 9.6-14.1 9.6-.4 0-4-6-7.9-13.3-10.5-19.2-12.1-21.9-12.6-21.4-.3.3-1.5 6-2.7 12.7l-2.3 12.3-6.8-13.2c-3.7-7.3-6.6-13.4-6.4-13.5.1-.1 3.5-2.1 7.3-4.3 3.9-2.3 9.7-6.4 13-9.2 6.7-5.6 7.5-5.9 7.5-3.2z"/><path d="M3780.2 1476c-20.9 5.6-39.5 21.8-41.9 36.4-.9 5.9.5 10.4 5 15.3 7 7.6 16.7 11.4 36 13.9 6.1.8 11.2 1.6 11.4 1.7.1.2-1.8 3.7-4.4 7.8-9.8 15.7-16.3 33.1-16.3 43.5 0 6.4 1.9 14.2 5 20.4 4.6 9.1 15.4 17.9 22.2 18.1 2.3 0 2.3.1-.2 1.1-16.7 6.9-24.2 13.4-30.6 26.4-3.8 7.6-3.9 8-3.9 18.8 0 10 .3 11.7 2.8 17 5.2 11.3 13.7 19.1 26.5 24.8l6.7 2.9-16.8-.6c-24.4-.9-44.1-2.8-56.3-5.5-15.5-3.5-23.8-13.8-23.8-29.5 0-6.6.5-9.1 2.7-13.9 6.1-13.2 16.1-22.3 35.6-32.5l11.3-5.8-3.8-.8c-7-1.3-19.8-5.7-26.9-9.2-9.5-4.8-19.5-11.2-19.5-12.6 0-.6 3.7-4.7 8.3-9.1 8.4-8.2 18.4-15.5 28.9-21.1l5.7-3.1-20.2.1c-11.1 0-28.1-.4-37.7-1-36.2-2-57.5-.4-75.3 5.5-23.3 7.9-36.5 20.5-56.7 54.5-4.6 7.7-10.4 16.9-12.9 20.5-5.6 8.1-16.8 19.3-24.3 24.3-11.9 7.8-26.8 11.3-37.3 8.5l-5-1.3-1.3-7.5c-2.4-13.6-1.9-12.8-5.5-7.4-1.7 2.6-10.7 12.6-20 22.1-21.7 22.4-28.7 31.9-31.6 42.8-5.9 22.4 4.8 43.4 29.8 58.5 12 7.2 21.5 10.1 59.3 18.6 34 7.5 51.7 12.3 63.3 16.9 3.2 1.4 6.1 2.3 6.3 2 .2-.2-1.1-3.2-3-6.7-4-7.7-13.9-17.8-23.4-24.1-9.2-6-12.4-9.3-12.4-12.6 0-5.4 8.9-14.2 19-18.9 7.3-3.4 22.4-4.2 32-1.7 9.1 2.3 22.8 9 34.2 16.7l9.8 6.5-2.6 2.3c-1.3 1.4-3.9 5.2-5.6 8.7-7.4 15.2-3.6 38.1 9.1 54.1 19.7 24.7 58.9 29.9 104.8 13.8 14.7-5.2 27.5-10.8 55.8-24.6 42-20.5 59.1-27.6 78.5-32.4 42-10.5 80.7-5.5 105.8 13.4 2.9 2.2 5.7 3.8 6.3 3.5 2.8-1.8-2-17.6-7.6-24.9-8.4-11-31-22.3-54.4-27.1-4.1-.9-7.7-1.7-7.9-2-.9-.9 9-10.3 14.4-13.5 6.8-4.1 17.5-7.9 22.3-8 4.9 0 3-1.7-8.6-7.7-9-4.7-27-11.2-31.1-11.3-3.4-.1 9.6-10.5 24.6-19.7l3.3-2-7.8-1.6c-9.6-2-11.2-2.2-34.3-4.2-20.6-1.8-28.7-3.7-39.3-9.3-20.2-10.5-26.7-35.9-14.2-54.9 8-12 26.2-18.8 40.2-15 5.1 1.3 5.2 1.3 4.1-.6-.6-1.1-3.1-4-5.7-6.5-5.9-5.8-16.9-10.9-33.6-15.7-27.3-7.7-36.7-15.5-41.1-34.1-3.2-13.6-.3-23.2 12.8-43.2 4.5-6.9 9.2-15 10.4-18.1 2.9-7 3.1-15 .4-20.9-3-6.6-11.1-14.5-18.2-17.7-8.4-3.8-21-4.4-31.6-1.5zM3337.5 1739.6c-4.5 3.5-12.2 6.6-24.5 9.9-14.6 3.9-21.2 6.9-27.2 12.3-4.8 4.3-6.8 8.5-6.8 14.4 0 4.5 3.4 12.6 5.6 13.5 2.2.8 1.6 2.3-.8 2.3-1.3 0-4.3 1-6.8 2.1-10.3 4.6-19 17.3-19 27.7 0 4.8.2 5.3 2.8 6.3 3.5 1.4 15.4.6 34.2-2.1 26.3-3.9 39.2-3 52.3 3.7 11.3 5.7 19.5 17.2 18.8 26.4-.1 1.3-2.6.7-14.3-3.2-19-6.4-27.9-8.1-41.3-8.1-9 0-12.5.5-19.1 2.6-17.2 5.5-30.4 18.1-33.9 32.7-.6 2.4-.3 2.7 6.7 4.8 4 1.2 12.6 3.1 19 4.3l11.7 2.2-5.2 2.8c-7.4 4.1-13.3 10.3-17 17.8-2.9 5.9-3.2 7.3-3.2 16 0 8.2.4 10.3 2.7 15.3 6.7 14.3 25.9 27.4 40.7 27.8 3.1.1 2.6.4-3.9 2.5-14.4 4.5-25.2 10.6-32.7 18.5-16.8 17.6-13.3 47.4 6.5 55 6.6 2.5 9.5 2.6 69.5 2.1 20.8-.2 38.1-.2 38.3.1.3.2-2.4 1-5.8 1.7-16.1 3.1-36.1 11-47.8 19-22.5 15.3-31.8 44.5-20.7 65.3 5.9 11.1 14.4 16.3 38.2 23.3 17.7 5.1 25.2 8.1 34.4 13.6 17.6 10.6 31.4 25.2 41 43.7 4.3 8.4 9.1 21 9.1 24.2 0 2.9 1.5 3 7.1.2 7.7-3.9 18.5-14.7 30.6-30.7 11.8-15.6 17.1-21.7 25.3-29 16.7-14.8 42.3-25.7 64.3-27.3 10.4-.7 10.6-.4-4.3-9.8-14.6-9.1-33.5-18.6-49.8-24.9-24-9.4-23.7-9.6-8.7 5.4l12.9 12.9-5.9 2.7c-12.6 5.5-28.4 18-36 28.5l-3.6 4.8-39.4-31c-41.7-32.8-44.5-35.5-44.5-43.1 0-11.8 11.2-24.3 29.6-32.9 18.1-8.6 40.7-10.6 58.9-5.2 6.5 1.9-16.6-16.4-30.3-24.1-16.8-9.3-36-15.8-56.7-19.1-12.2-2-34.8-3.3-47.2-2.7-5.9.2-10.3 0-10.3-.5 0-2.9 3.4-11.6 5.9-15.1 3.9-5.3 14.4-10.5 27.1-13.4 7.8-1.8 12.7-2.2 28-2.2 10.2-.1 21.2.2 24.5.6l6 .8-5.5-3.5c-9.5-6.1-26.7-14.1-52.4-24.5-24.3-9.8-41.8-17.9-50.6-23.5l-4.4-2.8 2.5-1.9c3.7-3.1 17-9.5 25.2-12.3 20.9-7 51.4-7.4 69.6-1 2.4.8 4.6 1.3 4.8 1.1.6-.6-8.5-8.4-14.7-12.6-8.5-5.7-19.5-11-30.3-14.5l-9.9-3.1 9.9-2.2c16.6-3.7 30.4-5.2 49-5.2 16-.1 33.8 1.1 38.6 2.6 2.5.8 2.2-1.3-1.8-10.6-14.2-33.9-44.3-63.5-79.2-78-6.8-2.8-7.5-2.9-9.6-1.5-1.3.8-7.2 3.3-13.1 5.4-12.2 4.4-12.2 4.8-.7-7.2l6.6-6.7-2.7-7.8c-1.5-4.2-5.1-14.3-7.9-22.5-2.8-8.1-5.4-14.7-5.8-14.7-.3 0-1.5.8-2.6 1.6zM1194.7 1476c-15.1 4.8-25.8 19.1-24.1 31.9.9 6.5 4.1 13 12.4 25.6 10.2 15.4 13.2 22.2 13.8 31.7.8 12.8-3.1 24.1-10.9 31.9-5.4 5.4-15.3 10-32.4 14.9-7.7 2.3-16.9 5.5-20.5 7.3-9.1 4.4-23.3 18.6-15.7 15.8 4.4-1.7 12.6-2.2 18.1-1.2 15.3 2.8 26.6 13.3 29.9 27.7 3 12.7-.1 24.9-8.8 34.3-11.3 12.1-23.3 15.7-62 18.6-9.1.7-24 3-27.5 4.3-2 .8-1.6 1.2 4.8 5 3.9 2.4 10.6 7 14.8 10.4l7.7 6.1-7.4 1.9c-4 1.1-10.7 3.3-14.8 5-8.6 3.6-22.1 11-22.1 12 0 .5 1.3.8 2.8.8 8.8 0 22.9 6.9 31.5 15.4l6 5.9-12.9 3.2c-22 5.5-36.7 12.6-46.9 22.9-7.4 7.4-10.4 13.6-11.2 22.8l-.6 7 6.4-4.7c18.8-13.8 42.5-20.4 69.9-19.2 32.6 1.4 58.4 9.7 111 35.8 57.8 28.6 85.2 37.1 114.5 35.6 19.7-1.1 34.8-7.1 46-18.4 11-11.1 16.9-25.3 16.8-40.8 0-10.4-2.2-17.5-7.8-24.8l-3.5-4.5 9.3-6c20.3-13.1 33.9-18.2 48.8-18.3 13.1 0 23.7 4.6 32.2 14 7.1 7.9 6.1 11.1-6.1 19.3-10.6 7.2-22 18.8-26.1 26.7-2.8 5.4-3.1 6.3-1.5 5.7 16.8-6.7 32-11 64.9-18.1 29.8-6.5 43.1-10 50.6-13.2 18.7-8 32.8-20 39.5-33.7 3.8-7.8 3.9-8.3 3.8-18.5 0-18.3-4.3-25.7-29.4-51.8-9.5-9.8-19.3-20.6-21.9-24.1l-4.6-6.2-1.7 9.7c-.9 5.4-1.7 9.9-1.7 9.9-.1.1-3.1.7-6.7 1.4-15.4 2.9-30.5-2.9-46.6-17.9-9.3-8.7-13-13.8-26.8-36.6-17.3-28.6-27.5-39.9-43.9-48.4-19.8-10.2-42.5-12.9-88.1-10.5-9.6.5-26.6.9-37.7.8h-20.2l5.7 2.9c10.4 5.3 19.6 12 29.2 21.4 10.9 10.6 11.1 8.8-2.2 16.9-9.3 5.6-21.5 10.6-32.1 13l-7.7 1.8 10.7 5.3c18.7 9.4 29.8 19 35.9 31.1 2.6 5.2 2.9 6.7 2.9 15.7 0 8.4-.4 10.7-2.2 14.1-2.6 4.9-9.2 11.1-14.1 13.1-8.9 3.7-34.5 6.9-62.7 7.8l-18 .6 6-2.4c22.4-8.6 35.4-30.8 30.1-51.4-4.3-17.2-14.5-28-33.6-36.1-2.5-1.1-2.5-1.1-.2-1.1 5.4-.2 14.4-6.6 19.3-13.7 12-17.5 8.8-40.7-9.6-69.4l-4.4-6.9 6.7-.6c23.4-2.4 39.9-9.3 44.9-18.8 2.4-4.8 2-12.7-1.1-19-2.7-5.5-11.3-14.8-18-19.3-14.8-10.1-34.9-13.9-48.9-9.4zM1661.3 1739.6c-.4 1-3.9 11-7.9 22.3l-7.2 20.6 8.4 9.2 8.4 9.1-9.5-3.4c-5.2-1.8-11.2-4.1-13.2-5-4.7-2.1-4.9-2-14.8 2.4-34.6 15.6-63.1 44.9-76.5 78.8-1.7 4.2-2.9 7.8-2.8 7.9.2.1 4.6-.4 9.8-1.1 16.3-2.3 49.1-1.8 66.8 1.1 7.4 1.2 22.3 4.7 21.9 5.1-.2.3-3.7 1.4-7.7 2.5-8.8 2.4-19.4 7.2-27.6 12.4-6.7 4.2-19.7 14.6-19.1 15.2.2.2 1.6-.1 3.1-.7 13-4.9 40.7-6.6 56.1-3.5 15.3 3.1 33.6 10.4 41.4 16.4l2.3 1.8-7.9 4.6c-10.9 6.4-23 11.9-50.8 23.2-22.9 9.2-46.2 20.3-51.5 24.5l-2.5 2 4.5-.7c2.5-.4 13.5-.8 24.5-.8 21.1.1 28.6 1.2 42.6 6.4 10 3.8 17 11.6 18.5 20.9l.6 3.9-18.8.1c-42.8.1-75.5 8.7-104.1 27.4-7.8 5.1-23.6 17.9-22.9 18.5.2.2 3.4-.4 7.2-1.3 25.5-5.9 58 3.5 74.8 21.7 10 10.8 10.8 20.7 2.3 29.5-2.3 2.4-20.8 17.4-41.1 33.3-36.4 28.6-37 29-38.5 26.8-7.5-11-22.2-23.3-35.1-29.6-4.1-2-7.7-3.7-8-3.9-.2-.1 5.1-5.8 11.8-12.5 6.7-6.7 12.2-12.5 12.2-12.9 0-.9-16.5 4.8-28.5 9.8-13.2 5.6-30.4 14.7-44 23.3l-12 7.6 9 .7c26.5 2.1 55.1 15.8 73.1 35 3.3 3.5 10.6 12.6 16.4 20.3 12.7 17 22.4 26.9 30.9 31.3 3.4 1.9 6.4 3.2 6.5 3 .2-.1 1.5-4.4 3-9.3 5.4-17.7 15.1-33 29.3-46.6 14.9-14.3 27.1-20.7 52.4-27.9 19.1-5.5 27.4-9.6 34.4-17.1 6.4-7 9.5-15.2 9.5-25.6 0-31.5-24.8-54.1-71.2-64.9-4.3-1-7.8-2.1-7.8-2.4 0-.3 2.8-.4 6.3-.3 19.3.7 88.6.8 93.8.1 15.4-2.1 24.9-13.5 24.9-29.9 0-12.1-5.9-23.8-16.2-31.9-6.8-5.4-12.9-8.5-25.1-12.4l-9.9-3.3 5.8-.5c11.8-1.1 25.4-8.8 33.3-18.8 5.8-7.3 8.4-14.9 8.5-24.5.1-7-.3-8.8-3-14.5-3.6-7.6-10.1-14.6-17.4-18.8l-5.2-3 7.3-1.2c7.6-1.2 20.8-4.3 26.8-6.2 3.1-1 3.3-1.3 2.8-4.4-2.7-16.4-22-31.3-44.6-34.4-13.7-1.9-32.1 1.4-54.5 9.5l-9.9 3.6.6-4.6c1.7-12 11.4-21.6 27.4-27.2 6.8-2.3 9.3-2.7 18.8-2.6 6.1.1 16.9 1 24 2.2 16 2.5 34.4 3.6 36.5 2.2 2.6-1.8 1.8-12-1.4-18.5-4.2-8.5-15.9-17.6-22.7-17.6-2.3 0-2.4-1.3-.2-3.1 2.4-2.1 5.3-8.9 5.3-12.8 0-8.4-8.4-17.8-19.7-22.1-3.1-1.2-10.6-3.5-16.7-5.1-11.6-3.2-16.9-5.3-22.3-8.9-3.1-2.1-3.3-2.1-4-.4zM2453.6 1747.7c-4.4 14-15.9 32.1-26.2 41.4-3.8 3.4-12.8 9.9-13.7 9.9-.2 0 .3-2.8 1.3-6.3 1-3.4 2-9.7 2.4-13.9l.6-7.6-7.8 7.6c-4.2 4.2-15.6 14.1-25.2 21.8-30.7 24.8-38.4 34.9-38.4 50.1 0 4 .3 7.5.7 7.9 1.1 1.1 3.5-1.5 10.5-11.5 7.4-10.7 15.2-19 20.1-21.5l3.3-1.7-2.8 4.6c-3.3 5.7-3.7 15-1 20.4l1.8 3.3 3.6-6.2c4.6-7.8 13.5-16.8 20.3-20.5l5.2-2.8-.6 2.4c-2.4 9.5-1.5 18.9 2.6 26.8 2.4 4.8 4.7 6.4 4.7 3.3 0-3.3 6.9-15.8 11.6-21 4-4.5 12.6-11.2 14.4-11.2.4 0 .1 2.3-.6 5.2-2.4 9-1.3 18.9 3 28.3 2.3 5.1 8 12.5 9.7 12.5.5 0 .9-1.7.9-3.8 0-8.9 5.8-23 13.1-31.7 2.2-2.8 4.4-5.1 4.8-5.3.4-.1.7 4.8.7 11-.1 9.8.2 12 2.3 16.5 2.3 5.3 8.9 12.3 11.4 12.3 1.1 0 1.1-1.1 0-6.3-2.4-11.3-1.6-20.7 4.2-51.6 4.3-23.2 3.6-39.1-2.3-50.6l-2.6-5-.7 4.5c-1.5 10.2-7.6 19.3-18.6 28.1-6.5 5.1-18.5 12.9-19.9 12.9-.3 0 .3-1.5 1.4-3.3 2.8-4.5 6.9-16.3 8.2-23.8 1.4-7.3 1.5-25.3.3-28.7-.8-2.1-1.1-1.7-2.7 3.5zM2544.7 1747.2c-1.7 14.7 1.6 34.6 7.9 47 1.4 2.7 2.3 5.2 2.1 5.4-1 1-21.5-13.7-26.5-19-5.5-5.8-11.2-16.3-11.2-20.6 0-5.5-1.6-5.2-4.3.7-5.9 13.1-5.9 28.2 0 57.3 3.8 19.3 4.8 36.6 2.4 44.9-.7 2.3-1 4.5-.7 4.8 1 1 7.4-3.8 9.8-7.4 4-6.1 5.1-10.9 5-22.3l-.1-10.5 4.4 4.8c7.4 8.1 14.4 24.8 14.5 34.7l.1 3.5 3.6-4c9.3-10.4 13.1-28.1 8.8-41.5-1-3.1.8-2.4 7.6 2.7 7.4 5.7 14.9 16 17.7 24.7l1.9 5.9 2.6-4.4c1.4-2.4 3-6.2 3.6-8.4 1.4-5 1.4-16.5.1-19.9-1.3-3.5-.4-3.3 6.6 1.2 7.3 4.8 14.2 12.2 18.5 19.8l3.3 5.8 1.8-4c3.1-6.9 1.8-17.4-2.8-22.5-1.5-1.6-1.4-1.7.6-1.2 3 .8 13.2 10.4 17.7 16.6 13.8 19.3 13.6 19.1 14.5 16.6 1.6-4.1 1-13.2-1-18.6-4.1-10.7-11.4-18.4-37.2-39.3-8.5-6.8-19.3-16.2-24.1-20.7l-8.5-8.2.8 8.2c.5 4.5 1.6 10.6 2.4 13.6.8 2.9 1.3 5.5 1.1 5.7-.8.8-12.3-8.4-18.3-14.7-9.2-9.7-17.1-23-21-35.2-1-3.1-2.1-5.7-2.5-5.7-.4 0-.9 1.9-1.2 4.2zM2343.9 1917.8c-15.5 11.8-28.6 36.1-34.8 64.4-1 4.9-1.7 8.8-1.4 8.8.2 0 1.6-1.4 3-3 2.9-3.5 9.7-8.4 13.1-9.4 2.1-.7 2.2-.5 2.2 4.7 0 9 5.7 22.4 12.3 28.5l2.3 2.1 1.7-4.8c1.9-5.3 7.8-12.7 12.5-15.4l3.1-1.7 2 4.6c3 6.6 8.6 13.9 13.9 18l4.6 3.5 2.2-6.7c1.3-3.6 3.9-9.1 5.9-12.1l3.6-5.5 4.9 7.4c5.6 8.5 10.6 13.6 11.9 12.2.5-.5 1.9-4.6 3.1-9.2l2.3-8.3 5.6.5c24.2 2.5 34.2.4 45.6-9.6 4.9-4.3 12.9-13.8 12.2-14.4-.2-.3-4.6 1.6-9.8 4-12.8 6.1-20.4 7.9-30.4 7.4-13.6-.7-22.9-6.5-26.1-16.1-2.3-7-1.6-20 1.4-25.1 1.2-2 2.2-3.9 2.2-4.2 0-.9-7.7.9-12.2 2.8-4.6 1.9-9.3 6.5-20.1 19.1-5.7 6.8-9.6 8.2-17.7 6.7-15.1-2.9-22.9-14.6-20.2-30.5.6-3.6 2.7-10.2 4.6-14.7 2-4.5 3.4-8.3 3.2-8.5-.2-.2-3.2 1.8-6.7 4.5zM2647 1913.3c0 .2 1.5 3.7 3.4 7.8 5.6 12.3 6.8 20.7 4.1 29.7-3 10-11.9 16.3-23.5 16.5-7.3.2-9.3-1.2-17.7-11.8-7.2-9.3-13-13.7-20.7-16-7.5-2.3-7.9-2.1-5.7 2.3 2.4 4.8 3.9 12.6 3.4 18.3-.9 10.8-6.3 17.9-16.9 21.9-5 1.8-7.3 2.1-14.9 1.7-9.8-.4-17.3-2.6-28.9-8.4-3.7-1.9-7-3.3-7.2-3.1-.7.7 8.5 11.6 12.7 15.1 10.8 8.8 21.3 11.4 39 9.6 6.1-.6 11.3-.9 11.5-.6.3.2 1.7 4.6 3.1 9.7l2.7 9.3 5.1-5.5c2.9-3.1 6.6-7.9 8.2-10.8l3-5.2 2.5 3.3c3.5 4.6 5.8 9.4 7.8 15.7l1.6 5.2 4.1-2.9c5.4-3.9 10.7-10.6 13.8-17.4l2.6-5.7 2.8 1.5c4.8 2.4 11.7 11 13.1 16.1l1.4 4.8 3.9-4.5c6.5-7.4 10.2-16.1 11.1-26.5.3-2.7.5-5 .5-5.1.1-.1 1.5.3 3.2.9 1.7.6 5.7 3.5 9 6.6 6.8 6.3 6.6 7.4 2.3-9.9-5.5-22.5-16.8-43.9-29-54.7-4.9-4.4-11.4-8.9-11.4-7.9zM2515.5 2056.5c-.1 18.8-1.1 26.8-6.1 48.2-1.3 5.7-2.4 10.5-2.4 10.8 0 .3 3.3-3.4 7.4-8.3 22.4-27 44.8-33.7 69.7-21.2 11.4 5.8 17.7 13.1 28.3 32.8 3.6 6.7 7.7 13.9 9.2 16l2.6 3.7-.6-7.8c-1.3-14.6-7.7-35.2-17.6-56.5l-4.9-10.2-7.8-.1c-4.3 0-8.5-.2-9.3-.3-.8-.2-5.2-.6-9.7-1-11-.8-33.9-6.8-42.8-11.1-4.6-2.2-8.7-5.1-11.6-8.2l-4.4-4.8v18zM2474.4 2043.5c-5.4 5.7-13.7 9.8-28.2 13.9-14.1 4-23.6 5.5-40.7 6.4l-12.9.7-5.3 11.9c-9.5 21.1-15.4 40.5-16.8 55.2l-.6 6.9 2-2.5c1.1-1.4 4.4-6.8 7.2-12 14.2-26.1 19.5-32.4 32.1-38.3 9.8-4.6 16.4-6 25.9-5.5 6.7.4 9.1 1.1 16.1 4.6 9.1 4.5 19.9 13.7 28.2 24.1 2.7 3.3 5.1 5.9 5.3 5.7.2-.2-.7-5.2-2.1-11.2-4.5-19.8-6-32-6-48.7-.1-8.6-.1-15.7-.1-15.7 0 .1-1.9 2.1-4.1 4.5z"/><path d="M2423.3 2110.7c-5.5 1.9-13 8.7-17 15.5-8.8 14.5-9 36.7-.5 46.1 10.3 11.4 36 5.8 55.2-12 11.5-10.6 13.7-18.2 8.5-28.9-8.2-16.8-29.9-26.5-46.2-20.7zM2544.4 2111.4c-7.4 2.7-10.5 4.9-16.8 11.5-8.9 9.6-11.1 19.1-6.3 27.3 3.4 5.9 13.1 14.8 21.5 19.7 18.4 11 35.6 11.3 43.6.8 7.7-10 6.8-30.4-1.9-45.3-3.4-5.8-11.6-12.9-17.2-14.8-6.6-2.3-15.6-2-22.9.8zM2372.3 2189.6c1.2 15.3 7.9 32.5 17.9 45.7 9.5 12.8 26.3 26.8 42.3 35.4l5.9 3.2 5.2-4.9c5.8-5.5 11.4-7.5 18.2-6.6 5.6.8 13.4 4.7 19.4 9.7 2.6 2.1 4.8 3.9 5 3.9.3 0-7.4-78.4-8.1-82.9-.1-.3-1.3.7-2.8 2.1-9.8 9-24.6 14.8-37.8 14.8-16.7 0-40.2-9.1-57.3-22.2-9.2-7-8.6-7.1-7.9 1.8zM2610.5 2188c-22.8 16.9-48.9 24.8-68.1 20.7-8.9-1.9-15.2-4.9-23.1-10.9-3.5-2.6-6.3-4.2-6.4-3.5 0 .7-.2 1.9-.3 2.7-.2.8-.7 5.1-1 9.5-.4 4.4-.9 9.3-1.1 11-.3 1.6-.7 5.5-1 8.5-.3 3-1.4 14.5-2.5 25.4-2.7 27.4-3.1 25.5 3.3 20.3 6.1-4.9 14.4-8.8 20.5-9.5 5.9-.6 11.9 1.9 17.1 7.2l4.4 4.5 5.1-2.6c21.3-10.6 43.3-31.8 52.9-50.8 4.1-8.2 7.8-21.5 8.4-30.3.3-4.5.4-8.2.2-8.2-.2.1-4 2.7-8.4 6zM1186.5 2318c-18 4.8-31.5 13.8-53.5 35.9-9.1 9.1-20.3 20.8-24.9 25.8-9.7 10.8-10.5 10.2 9.9 7.8 6.9-.8 13.2-1.5 14-1.5.8 0-5.9 2.5-15 5.6-30.3 10.2-49 21-63.7 36.8-11.6 12.4-17.3 27.2-17.3 44.5.1 20.8 8.8 37.6 23.5 45.2l6.3 3.3-3.4 4c-12 14-9.8 39.1 4.9 55.2 5.6 6.2 17 12.3 27.7 15 8.4 2.1 26.9 2.1 37.5 0 4.4-.9 8.3-1.6 8.8-1.6.4 0-.6 1.8-2.2 4.1-8.5 11.6-5.4 31.8 6.9 45.2 9.2 10 23.8 15.5 42.7 16.1 10.2.3 25.5-.6 31.5-2l2.8-.6-2 4.4c-7.4 16.4 5.3 39.7 25 45.5 7 2.1 19.5 2 28-.2 6.7-1.7 21.9-8.6 27.9-12.6l3.3-2.2-1.6 3.1c-6.1 11.9-2.3 28.1 9.7 40.9 16.4 17.5 39.9 19.7 78 7.3 6.8-2.2 12.6-4 12.8-4 .2 0 .5 2.6.5 5.8.3 9.4 3.6 16.4 11.8 24.7 11.2 11.4 23 15.9 40.6 15.8 11.6-.1 21.3-2.1 38.9-7.8l13.4-4.4 5.8 5.4c17.2 15.8 45 19.2 65.3 7.9l4.6-2.6v3.4c0 14.4 11 31.2 24.5 37.4 14.1 6.5 27.1 5.5 43.7-3.4.3-.1.2 1.6-.4 4-3.1 13.4 5.2 31.6 19.3 42.2 21.8 16.4 47.7 16.6 88.6.4l15.2-6 4.4 3.6c16.9 13.8 44.6 17.9 67.2 9.9 7.9-2.9 18.5-9.4 23-14.3l3-3.2-6 .9c-14.5 2-24.9.3-31.4-5.3-6.6-5.7-9.9-15.2-7.1-20.5.9-1.6.6-1.5-2.6.6-9 6.1-22.6 4-33.3-5.2-7.3-6.2-12.1-18.7-12.1-31.5 0-5.8 1.8-21.7 2.5-22.6.2-.2 2.5 1.2 5.2 3.1 10.7 7.7 20.1 10.8 32.3 10.8 14.8-.1 27.3-4.6 36.1-13.2 3.7-3.6 4.8-4.3 4.3-2.7-1.5 4.6-.6 17.1 1.7 23.3 7.3 19.6 21.1 30.5 55.9 43.8 20.7 7.9 29.5 10.1 41 10 16.9-.1 23.1-3.6 47-26.8 18.8-18.2 23.4-21.2 41.3-26.4 27.5-8 37.7-18.1 61.7-61.1 22.3-39.9 30.4-65.4 32.4-101.8.4-7.2-.7-8.8-2.5-3.5-4.7 14.6-19.2 34.3-32.9 44.7-8.3 6.3-8.1 6.3-7.2 1.4 1-6 .6-51.7-.5-55.1-.8-2.6-1.3-1.3-4.6 10.8-6.5 24.1-18 49.9-31.3 70l-5.9 9-.5-12.2-.5-12.3-4.9 9.3c-11.6 21.9-23.2 38.9-35.2 51.6-6.6 7-19.3 18.1-20.7 18.1-.2 0 2-9.7 5-21.6 2.9-11.9 5.2-21.8 5-22.1-.3-.2-2.5 2.4-5 5.9-9.3 13-26.8 27.9-41.2 35.1-12.4 6.1-12.2 6.4-5.9-6.9 3-6.4 5.3-11.8 5.2-11.9-.2-.1-9.5 4-20.8 9.1-11.3 5.2-20.8 9.4-21.2 9.4-.3 0 2.5-7.7 6.3-17.2s6.9-17.5 6.9-17.9c0-.4-5.5 1.7-12.1 4.7-6.7 3-12.4 5.3-12.6 5-2.5-2.4-3.1-26.7-.9-35.8.9-4 1-5.5.2-5.1-.6.4-6.3 4.4-12.7 9-6.5 4.6-11.9 8.3-12.2 8.3-.3 0 1.4-4.6 3.9-10.1 2.5-5.6 4.3-10.3 4.1-10.5-.2-.2-3.9 1.9-8.2 4.6-4.4 2.7-8.1 4.7-8.3 4.6-.2-.3 20.1-39.1 27.4-52.4 2.8-5 2.6-4.9-7.6 3.2-12.8 10.4-28.4 21.4-42.6 30.2-7.6 4.6-13.9 8.2-14.1 8-.3-.2 4-8.4 9.5-18.3 5.4-9.8 10.4-18.8 11-20l1.2-2.1-7.8 2.4c-12.1 3.8-12.6 3.9-11.6 2.3.4-.8 5.7-8.8 11.7-17.9 14.5-22.1 14.1-20.9 6.8-16.9-3.4 1.9-9.8 6-14.3 9.3-4.5 3.2-7.7 5.2-7.1 4.5 15.1-18.9 21.1-26.8 28.9-38.5 5.2-7.7 9.4-14.3 9.4-14.6 0-.3-6.4 3-14.2 7.4-7.9 4.4-16.1 8.9-18.3 10l-4 2 3.1-3.3c4-4.2 11.6-15.1 11-15.7-.3-.2-5.5 1.9-11.6 4.7-6.1 2.8-11.3 5.1-11.6 5.1-.4 0 20.7-26.5 42.5-53.5 1.2-1.4.7-1.3-1.9.6-15.7 11.6-29.8 19.6-44.5 25.2-14 5.4-14.6 5.4-8 .4 3.3-2.4 8.3-6.9 11.2-9.8 5.1-5.3 13.6-16.9 13-17.6-.2-.2-2.8.8-5.8 2.1-7.5 3.3-19 6.4-27.9 7.4-4.1.5-7.7.8-7.9.6-.2-.2 1.9-4.1 4.6-8.6 13.4-22.3 34.8-57.6 36.2-59.8.8-1.4-2.2.9-6.8 5-10.6 9.6-17.8 15.4-26.6 21.6-13.4 9.6-36 22.2-37.3 20.9-1.2-1.1 5.2-17.9 11.5-30.5 3.5-6.9 9-16.2 12.2-20.8 3.3-4.5 5.8-8.2 5.5-8.2-.2 0-5.3 2.4-11.2 5.4-13.5 6.8-25.6 11.8-40.2 16.7-6.3 2.2-11.6 3.9-11.8 3.9-.2 0 6.4-5.2 14.5-11.6 25.7-20.3 60.8-49.5 78.7-65.7l3.1-2.8-5 2.7c-20.6 11.4-62.9 37.7-90.2 56.2-8.4 5.6-15.3 9.9-15.2 9.5 0-.5 6.2-9.1 13.8-19.3 7.6-10.2 13.7-18.6 13.6-18.8-.2-.2-8.7 3.1-19.1 7.2-10.3 4.2-18.9 7.4-19 7.3-.2-.2 5.2-4.4 11.9-9.4 14.2-10.6 28.1-22.2 38.7-32.2l7.5-7.2-29 14.7c-15.9 8.1-33.7 17.2-39.5 20.2l-10.5 5.5 4.5-4.9c4.3-4.6 7.9-10.8 9.5-16.2.7-2.3.6-2.3-4.2-1.6-2.6.4-7.8 1.7-11.5 2.9-3.8 1.3-6.8 2.2-6.8 2.1 0-.1 18.4-13.2 40.9-29.1 22.5-16 40.8-29.1 40.7-29.2-.1-.2-5.6 2.7-12.2 6.2-27.7 15.1-111.4 55-111.4 53.1 0-.3 23.5-22.2 39.4-36.8l4.1-3.8-6.5 2.4c-3.6 1.3-8.9 3.3-11.7 4.4-2.9 1.1-5.3 1.8-5.3 1.5 0-.2 9.6-5.1 21.3-10.9 11.6-5.8 20.3-10.3 19.2-10.1-1.1.3-3.8.8-6 1.2-2.2.4-8.9 2.5-14.8 4.7s-11 3.8-11.3 3.6c-1.1-1.2 1.2-4 5.9-7.1 2.9-1.9 14-8.9 24.7-15.7 10.7-6.8 20-12.7 20.5-13.2 3.9-3.8-72.4 14-98 22.8-1.1.3.3-.9 3-2.9 5.7-4 14.8-11.8 14.2-12.3-.1-.2-2.5.3-5.2 1.1-4.7 1.5-16.5 2.1-16.5.9 0-.3 3.2-4.6 7-9.5 3.9-4.9 6.5-8.9 5.9-8.9-.6 0-16 4.1-34.1 9.1s-33.2 8.9-33.4 8.7c-.2-.2 2.7-2.7 6.4-5.5 8.4-6.5 18.4-15.4 17.9-16-1.1-1.1-51.6 10.3-88.7 20-17.6 4.7-97.4 26.1-112.6 30.3-12.5 3.4-18.4 11.8-16.3 23.1 1.9 10.1 10 18.7 20.7 22 6.4 2 26.5 2.4 42.7 1 23.9-2.2 65.4-9.2 85-14.3 1.1-.3-2.7 1.9-8.5 4.8-30.1 15.2-59.2 37.5-65.5 50.2-1.8 3.5-2.5 6.7-2.5 10.5 0 14.6 13.4 22.6 36.5 21.7 14.8-.6 58-10.5 95.5-21.8 7.4-2.2 14.2-4.3 15-4.5.8-.2-1.2 1-4.5 2.8-25.1 13.2-52.3 29.4-62.1 37-12 9.2-15.6 21.2-10.1 33.3 7.7 16.7 25.2 24.8 46.1 21.1 10.6-1.9 19.5-5.5 42.9-17.4 21-10.6 33-15.1 40.8-15.1 3.2 0 3 .2-3.6 3.5-13.6 6.8-24.8 18.1-32 32.5-4.7 9.3-6.5 16.2-7.1 27-.5 8.6-.3 9.9 1.8 14 4.8 9.3 13.2 9.8 33.8 2.2 25.9-9.6 47.7-18.8 70-29.6l10.9-5.3-8.3 7.9c-13.1 12.2-17.7 20.8-17.8 33 0 8.3 3.3 16.3 8.3 20.1 6.9 5.1 11.9 6.2 30.4 6.1 17.8 0 28.7-1.6 43.5-6.5 3.4-1.1 6.4-1.8 6.7-1.5.3.3-1.1 4.2-3 8.8-8.3 19.4-11.7 33.5-12.4 51.8-.4 10.5-.2 15.4 1.2 22 2.9 14.2 8.6 26.6 16.7 36.3l4 4.9-3.3 3.4c-4.9 5-14.8 9.7-20.7 9.7-15 .2-27.7-10.4-31.9-26.5-1.5-5.9-1.6-7.8-.5-17.5 2.8-25.2 9.6-46.1 19.9-61.3 3.4-5-7 5.6-13.2 13.5-8.1 10.3-16.4 18.1-21.7 20.5-2.4 1-8 2.4-12.6 3-18.8 2.8-37.5-3.9-46.1-16.3-5.9-8.7-8.2-23.8-5.2-35.4 1.5-6.3 6.3-13.8 10-15.8 3.6-1.9 1.1-1.9-8.6.1-10.4 2.1-19.2 5.4-36.7 13.6-19.7 9.2-27.6 11.2-42 10.5-22.4-1-37.8-9.6-37.8-21.3 0-5.6 3-12.1 13.4-29.1 4.4-7.3 7.9-13.5 7.6-13.8-.2-.2-6.9 5-14.8 11.6-27.7 23.1-37.5 26.8-55.3 20.8-16.2-5.4-26-17.4-26.1-31.9-.1-8.9 3.8-16.7 14.6-28.9 11-12.5 21.7-25.5 21.3-25.9-.7-.8-16.1 6.5-29 13.8-20.9 11.7-22.8 12.4-36.5 12.5-11 0-11.8-.2-18.5-3.3-20.9-9.8-28.3-30.4-18.1-50.2 2.7-5.2 15.5-19 22.1-23.9 1.7-1.2-1.2-.1-6.4 2.4-27.5 13.6-49.8 16.1-67.7 7.6-16.4-7.8-24.7-27.3-17.9-42 3.1-6.6 5.8-9.7 16.9-19.6 7.8-6.9 16.1-16.3 15.3-17.1-.2-.2-4.1 1.2-8.8 3.2-20.1 8.5-37.5 10.7-49.5 6.3-7.7-2.8-17.1-12.1-19.6-19.4-2.8-7.8-3.1-14.2-1.4-21.9 4.7-20.3 22.3-36.8 50.5-47.6 15.4-5.9 15.3-5.9 10.9-5.9-6.5-.2-25.8 2.9-37.7 6-6.4 1.6-22.8 6.8-36.6 11.5-29.9 10.2-38.8 12.4-49.8 12.4-13.8 0-24.8-4.3-33.2-13-3.9-4-4-4.3-4-10.8 0-9.8 3.5-16.1 16-28.9 11.2-11.5 11.1-11.8-2-8.3z"/><path d="M1992.2 2352.5c-14 2.5-27.8 7.7-61.7 23.3-16.6 7.6-25.3 10.7-38.9 14.1l-11 2.8 4.5 3c16.4 11.3 39.2 18.2 58.8 17.8 3.9-.1 7 0 6.8.1-.1.1-3.6 2.5-7.8 5.2-15.2 9.9-29.1 25.4-37.6 41.7-4.2 8.2-9.6 23.8-10.7 31.1l-.6 4.1 7.8-7.6c7.6-7.7 15.9-13.3 21.7-14.7l3-.7-3.6 4c-8.7 9.6-13.8 22.3-14.6 36.3l-.6 9.5 4.7-4.3c4.9-4.6 14.6-9.7 20.5-10.8 3.1-.6 3.4-.5 2.7 1.2-3.1 8-3.1 23.8 0 33 .9 2.7 1.8 5 1.9 5.2.2.2 3.6-2.4 7.7-5.8 13.3-11.3 31-21.1 47.4-26.5 7.5-2.5 20.6-5.6 21.1-5.1.2.1-2.1 3.1-5 6.7-7.3 8.7-15.8 16-38.7 33.1-36.3 27-50.3 45.9-51.6 69.8-.5 8.3-.4 8.4 1.2 6 4.8-6.9 20.4-20.4 21.9-18.8.3.3-.1 3.3-4.4 35.8-7.4 54.8-8.1 60.4-8.1 61.8 0 2.5 22.6-10.7 35-20.6 9.5-7.5 19.5-16.9 26.1-24.4 5.6-6.3 6.8-7.3 6.3-5.1-1.8 7.5-7 22.7-10.5 30l-3.8 8.3 4.2-2.1c10.6-5.4 30.8-20.2 42-30.8 3.1-3 5.7-5.1 5.7-4.6 0 .4-2.1 8.4-4.6 17.7-2.6 9.3-4.4 17.1-4.1 17.5 1 1 11.8-8.3 17.9-15.5 8-9.3 16-23.8 28.1-50.7 10.2-22.7 18.4-38.1 24.6-46 6.6-8.3 19.1-20.1 35.7-33.6 23.4-18.9 38.1-34.7 41.9-45.1.5-1.2-7.1 2-23.7 9.8-13.3 6.4-27.2 12.9-30.8 14.6l-6.4 2.9 10-10.3c5.5-5.7 12.1-13.5 14.7-17.4 5.3-8.1 13.2-23.3 12.4-24.1-.3-.2-3.8 1.7-7.9 4.4-4 2.7-9 5.9-11 7.1l-3.6 2.3 5.5-8.3c8.9-13.1 17.7-33.2 19.9-45.3l.7-4-5.6 5.2c-3.1 2.8-8.7 7.2-12.4 9.6-6.3 4.2-20.3 11.7-21.8 11.7-.3 0 2-2.2 5.2-4.9 19.8-16.6 33.3-40.2 35.8-62.8l.6-5.8-2.4 5.5c-6.9 16.2-16.1 25.2-48.7 47.3-21 14.3-29.4 21.1-36.3 29.4-5.3 6.4-10.5 16.4-11.4 21.8l-.6 3.5 6.5-2.9c3.5-1.6 12.6-4.7 20.1-6.9l13.6-3.8-2 2.7c-2 2.9-11.3 11.2-18.9 16.9-8 6-16 13.1-18.1 16.1l-2 2.9 4.9-2.5c6.3-3.2 33.2-8 33.2-6 0 .8-10.4 17.3-15.2 24.2-8.3 11.7-21.2 26.5-33.7 38.4-6.8 6.5-12.7 11.7-12.9 11.4-.6-.6 9.5-21.5 15.5-32 2.5-4.4 7.7-12.4 11.4-17.8 3.8-5.3 6.7-9.7 6.4-9.7-.2 0-8.4 3.8-18.1 8.5-9.7 4.7-17.8 8.4-18.1 8.2-.7-.8 6.6-27.5 10.2-37.2 4.8-12.8 14.9-32.7 22-43.4 3.1-4.6 5.5-8.4 5.3-8.6-.2-.1-15.1 6.4-33.3 14.5-18.1 8.1-33.2 14.5-33.4 14.4-.6-.5 10-14.1 17.3-22 18.5-20.2 46.5-38.6 73.1-47.9l10-3.5-36 .5c-19.8.3-38.8.8-42.2 1-3.5.3-6.3.1-6.3-.4 0-1.2 11.1-14.2 14-16.3 4.3-3.1 11.8-3.9 27.8-2.8 8.1.6 17.4 1.5 20.7 2 14.1 2.3 30.7.3 35.3-4.4 3.4-3.4-16.6-15-38.2-22.1-29.5-9.7-62.1-13.7-82.4-10zM3811.4 2323.1c14 13.1 21.5 27.6 18.7 36.2-3.7 11.2-19.6 19.7-36.8 19.7-11.4 0-22.6-2.8-50.7-12.5-32.5-11.2-58.9-17.6-72.9-17.5l-5.2.1 10 3.8c15.2 5.9 18.8 7.6 27.4 13.1 10.5 6.7 19.9 16.8 24.6 26.4 3.2 6.4 3.8 8.7 4.2 16.3.4 7.2.1 9.9-1.5 14.6-8.4 23.6-33 29.2-67 15.2-4.8-2-9.3-3.8-9.9-4.2-4.1-1.8.5 3.9 13.5 16.7 17.4 17 19.4 20.2 19.5 31.5 0 6.3-.4 8.3-3.1 13.8-6.9 13.9-21.6 21.9-40.1 21.8-13.2 0-25.7-3.5-43-12-4.6-2.3-8.6-4-8.8-3.8-.2.2 2.3 2.4 5.5 4.9 14.7 11.4 23.1 26.7 21.9 39.9-1.7 19.5-19.3 33.9-41.2 33.9-9.3 0-17.3-2.5-29-9-13.2-7.4-35.5-18.3-36.1-17.7-.6.6 6 8.9 16.1 20.2 11.1 12.4 14.2 16.7 17.1 22.9 2.3 5.1 2.6 6.8 2.2 13-1.2 18.6-18 32.5-39.9 32.9-6 .1-7.7-.4-14.3-3.7-6.8-3.5-17.7-11.6-34.8-26.1-3.8-3.1-6.8-5.1-6.8-4.5 0 .6 3.3 6.6 7.4 13.3 11.4 18.9 13 22.3 13 28.9.1 5.3-.2 6-3.7 9.6-8.4 8.6-22.3 12.7-40.2 11.9-12.8-.5-18.1-2.2-37.5-11.4-14.3-6.9-24.6-10.6-35-12.8-10-2.1-10.6-2-6.6 1.6 10.8 9.5 13 33.9 4.2 47.8-8.5 13.5-28.1 21-47.2 18.2-13.7-2-20.8-6.4-30.6-18.9-8.5-11-14.9-18.2-17-19.3-1.3-.7-.8.5 1.7 3.9 9.6 13.4 18.6 45.2 18.7 66.3.2 20.2-13.4 35.8-31.6 36.1-7.8.1-15-3-21-9.1l-3.9-3.9 4.6-5.9c6-7.6 11-17.7 14.3-28.8 2.3-7.8 2.7-10.9 2.7-23 .1-19.8-3.7-37.2-12.8-58.6-1.9-4.3-3.2-7.9-3-7.9.3 0 5.1 1.3 10.8 3 24.5 7.2 54.4 7.9 66.3 1.7 5.2-2.7 10-8.9 11.4-14.7 3.5-14.6-3.2-29.8-19.2-43.1-3.5-2.9-5.6-5-4.8-4.7.8.4 10.8 4.9 22.1 10.2 30.4 14 64.9 27.3 75.1 29.1 5.1.8 10.9-.9 14.1-4.3 8.4-8.8 4-35.6-8.9-53.8-6.3-9-16.5-17.8-25.7-22.4l-7.9-4h4c7.4 0 20.3 5 44.7 17.1 16 8 26.7 12.6 32 14 9.9 2.6 24 2.8 30.5.4 10.4-3.6 20.2-13 23.5-22.5 3.4-9.6.6-19.8-7.6-27.7-7.5-7.1-37.3-25.4-61.2-37.5-10.3-5.3-12-6.9-4.6-4.3 14.3 5.1 52.9 15.3 79.8 21.2 14.2 3.1 18.4 3.7 29.1 3.6 10.6 0 13.4-.3 18.3-2.2 7.2-2.8 11.5-6.4 13.8-11.6 4.2-9.1.9-18.8-9.9-29.4-12.8-12.6-31.8-25.9-52.7-36.9-7.7-4-13.1-7.1-12-6.8 46.8 12 112 18.7 128 13.2 8.4-2.9 13.9-7.6 17.5-15 2.8-5.7 3.2-7.3 2.8-12.5-.5-7.3-4-12.4-10.4-15.2-2.3-1.1-12.7-4.1-23.1-6.9-10.3-2.7-35.2-9.3-55.3-14.8-48.3-13.2-79.8-21.1-106.2-26.6-11.9-2.5-22-4.6-22.5-4.6-1.3 0 6.1 7.1 14.9 14.3 4.8 3.9 8.6 7.2 8.4 7.4-.2.2-15.1-3.7-33.1-8.7-18-5-33.1-9-33.6-8.8-.5.2 2.1 4.1 5.6 8.7 3.6 4.6 6.5 8.8 6.5 9.2 0 1.9-13.2.8-19.5-1.6-3.1-1.2 5.1 7 11.3 11.2 2.8 2 5 3.8 4.9 4-.2.2-2.4-.4-4.8-1.3-19-6.8-90-23.6-93.8-22.2-.5.2 9.5 6.8 22.1 14.8 25 15.7 28.8 18.4 28.8 20.6 0 1.9-.1 1.9-11.5-2.6-8.5-3.3-21.5-6.5-21.5-5.4 0 .2 2.4 1.3 5.3 2.6 7.6 3.2 34.9 17 34.4 17.4-.2.2-4.9-1.4-10.5-3.5-5.6-2.2-10.2-3.8-10.2-3.6 0 .2 34.3 32.4 40.5 37.8 2.9 2.6 2.9 2.7.5 1.8-16.2-5.8-98.2-45.4-117.7-56.8-2.4-1.4-4.3-2.3-4.3-2.1 0 .3 18.4 13.5 40.9 29.4 22.5 15.9 40.8 29 40.7 29.1 0 0-3.2-.9-7.1-2.2-9.6-3.2-15.5-4.1-15.5-2.3 0 2.5 5.1 12.2 8.7 16.6l3.7 4.5-25-12.8c-13.7-7-30.9-15.9-38.2-19.7-7.4-3.8-13.5-6.8-13.7-6.6-1.2 1.1 36.7 33 51.5 43.4 4.4 3 8 5.7 8 5.9 0 .2-8.9-3.2-19.7-7.6-10.8-4.3-19.8-7.7-20-7.6-.1.2 5.7 8.4 13 18.3 7.3 9.8 13.7 18.5 14.1 19.3 1.1 1.8.8 1.5-10.9-6.5-26.5-18.2-97.5-61.9-97.5-60 0 1.4 57 49.2 81.2 68 7.1 5.5 12.6 10.1 12.4 10.3-.6.6-24.4-8.1-35.1-12.8-5.5-2.4-14.1-6.4-19.1-9l-9.2-4.7 5.9 8.1c6.9 9.6 18.7 32.8 22.4 44.1 1.5 4.3 2.4 8 2.2 8.3-.7.7-15.8-7.1-26.1-13.5-12.7-7.8-26.5-18.4-37.5-28.8-5.2-4.9-9.2-8.5-8.9-7.9.3.5 2.5 4.1 4.8 8 15.1 24.8 38 62.7 38 63.1 0 .6-8.7-.6-16.9-2.3-7.4-1.5-14.3-3.7-21.4-6.8l-3.9-1.6 2.3 4.1c4.9 8.6 13.8 17.9 25.4 26.5 1.9 1.3 1.8 1.4-1 .6-15-4.3-37.1-15.7-51.7-26.7-3.2-2.4-5.8-4.2-5.8-4 0 .2 9.7 12.4 21.5 27.1 11.9 14.7 21.4 26.9 21.2 27.1-.2.3-5.2-1.9-11.2-4.6-5.9-2.8-11-4.8-11.3-4.6-.7.8 4.5 8.3 9.6 13.8 2.5 2.6 4.3 4.8 4 4.8-.3 0-8.3-4.3-17.7-9.6-9.5-5.2-17.5-9.3-17.8-9.1-1.1 1.1 17.5 27.7 30.5 43.6l8.6 10.4-8-5.6c-6.9-4.8-19.9-12.7-21-12.7-.2 0 3.2 5.3 7.5 11.7 14.1 21.5 17.3 26.5 16.9 26.9-.3.2-4.6-.9-9.7-2.5-5.4-1.7-9.1-2.4-8.8-1.8.2.7 5.2 9.7 11 20.2 5.8 10.4 10.4 19.1 10.2 19.3-.4.5-19.3-11-29-17.6-8.8-6.1-22.8-16.6-31.8-23.8l-5.9-4.7 2.7 5.4c1.6 3 7.6 14.4 13.5 25.4 5.9 11 11.5 21.5 12.4 23.3l1.7 3.3-2.3-1.2c-1.3-.7-5.1-3-8.6-5.1-3.4-2.1-6.4-3.8-6.7-3.8-.2 0 1.6 4.6 4.1 10.1 2.5 5.6 4.3 10.3 4.1 10.5-.2.2-5.9-3.6-12.8-8.5-6.8-4.9-12.5-8.8-12.7-8.6-.2.2.1 2 .7 4.2 1.9 6.4 2.4 21.2 1.2 29.3-.7 4.1-1.4 7.6-1.6 7.9-.3.2-4.6-1.5-9.7-3.9-5.1-2.3-10.8-4.9-12.5-5.6l-3.3-1.4 1.9 4.7c1 2.7 4.2 10.6 7 17.7 2.9 7.1 5 13 4.8 13.3-.3.2-9.8-3.9-21.2-9.2-11.5-5.2-21-9.5-21.1-9.5-.2 0 2.2 5.2 5.2 11.6 3 6.4 5.3 11.9 5 12.1-.2.3-4.4-1.5-9.3-3.8-16.6-8.1-34.5-23.6-44.5-38.5-2.1-3.1-3.8-5.3-3.8-5 0 .4 2.5 10.5 5.5 22.6 3 12.1 5.5 22.2 5.5 22.5 0 1-5.9-3.4-12-8.9-14.3-12.9-29.9-34-42.5-57.6-3.7-6.9-6.8-12.6-6.9-12.7-.1-.1-.1 5.5-.1 12.3v12.6l-2.6-3.1c-4.5-5.5-15.1-24.1-21-37.1-6.9-15.1-11.1-26.8-14.9-41.4-1.6-6.5-3-10.1-3.3-9-1.9 6.7-2.6 36.5-1.2 52.3l.7 8.4-3.8-2.9c-15.9-11.7-28.4-27.5-36-45.6l-3.5-8.3.5 12c1.7 38.1 13.1 69 44.5 120.5 5.7 9.3 9.9 14.7 16.6 21.5 10.6 10.7 16.3 13.8 34.7 19.3 6.9 2.1 15.2 5.4 18.4 7.3 3.2 1.9 12.9 10.3 21.9 19 8.8 8.6 18.5 17.2 21.5 19.1 17.6 11.2 34.4 9.8 74.1-6.2 34.4-13.8 50.9-32.7 49.7-56.7l-.4-8.2 5 4.6c9.4 8.4 20.3 12.3 34.8 12.4 12.6.1 20.4-2.4 32-10.2 4.2-2.8 5.8-3.4 6.2-2.4.2.7 1 5.9 1.6 11.5 1.7 15.2-.7 27.4-6.9 36.1-9.3 13-26.7 17.7-37.6 10.4l-3.6-2.5.7 2.2c1.4 4.4.5 10-2.3 14.7-5.8 9.4-17.2 13.2-32.9 11.1-4.7-.6-8.8-.9-9.1-.7-.2.3 2.4 2.8 5.9 5.7 15.5 12.6 35.9 17.8 56.5 14.5 12.2-2.1 20.5-5.6 29.9-12.7l5.2-3.9 14.1 5.6c21.7 8.7 34.7 11.7 50.6 11.9 10.9.1 14.1-.3 20-2.1 24-7.6 42.1-31.3 38.5-50.3-.5-2.5-.9-4.8-1-5.2 0-.3 2.6.7 5.8 2.2 26.8 13.4 57.9-3 62.4-32.8l1-7.1 5.2 2.9c11.7 6.6 30.8 7.9 44.6 3.1 7.6-2.7 18.9-9.9 22.3-14.2l2.4-3.1 13.4 4.5c7.4 2.5 17 5.3 21.4 6.2 10.7 2.2 27.4 2.3 35.1 0 20-5.7 34.3-21.1 35.2-37.8.3-5.1.8-6.7 1.8-6.3 5.7 2.2 25.3 7.9 31.8 9.3 11 2.4 29 2.3 37.1-.1 15.4-4.6 27.5-16.5 31.9-31.5 2.1-7.2 2-13-.3-19.5l-1.9-5.4 5.2 3.2c19.6 12.6 42.3 16.4 57.9 9.7 6.8-2.9 15.2-11.3 18.9-18.9 2.9-5.8 3.3-7.7 3.3-14.2 0-5.3-.6-8.5-1.8-10.8-1-1.9-1.7-3.5-1.5-3.7.2-.1 3.2.2 6.8.7 10.9 1.6 35.6 1.4 43.1-.5 14.4-3.5 24.2-9.7 30.5-19.1 9.5-14.3 10.3-31.2 1.9-42.2l-2.4-3.2 5.3 1.4c19.5 5.1 42.9 3.1 58-4.9 15.9-8.5 25.6-25.9 24.4-44.2-.5-7.9-3.7-16.1-8.2-20.9-1.5-1.5-2.6-2.9-2.4-3.1.2-.1 2.6-1.4 5.3-2.8 23.9-12.1 31.5-48.9 16.2-78.2-4.6-8.7-18.9-22.7-30.7-30-10.8-6.7-26.6-13.7-45.5-20.1-14.4-4.9-14.8-4.8 9.3-2 5.6.7 10.2.8 10.2.3s-7.9-9.4-17.6-19.8c-24-25.9-35.3-35.6-50.4-43.7-8.2-4.4-22.4-9.2-27.2-9.2-2.9 0-2.8.2 4.6 7.1z"/><path d="M2968 2353c-33.3 5.2-62.7 15.8-76.5 27.5l-4 3.3 6 2.8c7.8 3.6 18.4 4.2 35.5 2 6.9-.9 18.4-1.7 25.5-1.8 11.6-.2 13.4.1 17.2 2 3.9 2 15.3 14.6 15.3 16.9 0 .5-1.7.9-3.7.8-2.1-.2-20.9-.5-41.8-.8l-38-.6 8.3 2.9c18.1 6.3 38.3 17.4 53.7 29.5 9.8 7.6 28.5 26.8 34.3 35.3l4.3 6.2-4.3-1.9c-2.4-1-16.7-7.3-31.8-14.1-15.1-6.7-28.5-12.6-29.7-13.1-1.7-.6-.9 1.2 4.2 8.9 7.7 11.8 16.4 29.1 21.6 43 4.1 10.9 10.2 33.4 9.7 35.7-.2 1-5.3-1-17.7-7.1-9.6-4.6-17.6-8.3-17.7-8.1-.2.2 1.6 3 3.9 6.3 9.6 13.3 22.1 35.4 28.1 49.7l1.6 3.9-4.8-4c-13.7-11.5-30.4-29.8-41.8-45.8-7.5-10.6-15.4-23.2-15.4-24.7 0-2.2 28.1 3 33.6 6.3 1.9 1 3.4 1.6 3.4 1.2 0-1.3-12.1-12.6-20-18.7-7.6-5.9-20-17.4-20-18.6 0-1.3 30.6 8.3 35.7 11.2 2 1.1 3.8 1.8 4 1.5 1.1-1-4.1-14-7.8-19.5-7.5-11.2-16.7-18.8-51.7-42.6-16.1-10.9-30.5-25.3-35.5-35.5-4.5-9.1-4.9-6.9-1.3 7.2 5 19.9 17.4 39 34.6 53.2l4.5 3.7-4-1.6c-7-2.8-18.8-10.2-27.7-17.4-9.5-7.7-9.2-8.1-5.1 5.9 3.2 10.9 9.8 24.8 16 34.2 2.7 4 5.3 7.9 5.7 8.6.7 1.1-5.3-2.5-19-11.4-3.3-2.2-3.1-.7 1.2 7.9 6.1 12.1 14.4 23.8 24 33.4 5.1 5.1 9.1 9.3 8.9 9.3-.1 0-8.2-3.8-18-8.5-9.7-4.7-17.8-8.5-18.1-8.5-.2 0-4.7-2.1-10.1-4.8-5.4-2.6-11-5.3-12.6-6l-2.7-1.2 1.6 3.3c6.6 12.8 18.1 25 41.4 43.7 34.1 27.5 41.7 37.5 59.9 78.5 13.5 30.4 21.2 44 31.3 55 4.9 5.4 14.5 13.1 15.3 12.3.2-.2-1.6-7.7-4.1-16.7-2.4-9-4.3-16.8-4.2-17.2.2-.5 4.1 2.5 8.8 6.7 4.7 4.1 11.9 9.9 16 12.8 9.1 6.6 25.2 16.7 25.7 16.3.2-.2-1.2-3.8-3.1-8-3.6-7.8-8.8-22.6-10.1-28.6-.6-3 .3-2.3 10.1 7.9 11.9 12.3 22.5 21.3 34.9 29.4 8.3 5.5 20.7 12.6 21.9 12.6.4 0 .5-1.5.2-3.3-.3-1.7-1.3-8.6-2.1-15.2-.9-6.6-2.5-18.3-3.5-26-3.4-24.7-7-52.6-7-53.6 0-1.4 6.9 2.4 11.8 6.6 2.4 2.1 5.8 6 7.7 8.7 1.8 2.7 3.5 4.6 3.8 4.1 1-1.6-.2-13.4-1.9-19.1-3.7-12.9-13.6-27.7-26.3-39.4-3.4-3.2-12.4-10.4-19.9-15.9-7.5-5.6-16.2-12-19.2-14.3-10.3-7.7-29.1-26.8-27.7-28.2.6-.6 16 3.4 23.7 6.2 16 5.7 33.5 16 46.9 27.5 2.5 2.1 4.8 3.6 5.2 3.4 1-.7 3.7-11.3 4.4-17.5.6-5.1-.1-11.5-2.1-19.4-.7-2.8-.6-2.9 2.5-2.3 5.5 1.1 15.5 6.4 20.6 10.9l4.8 4.3-.6-8.6c-1.1-14-5.4-25.3-13.6-35.7-2.3-2.9-3.6-5.2-3-5.2 3.5 0 16.1 8.2 22.8 14.8l7.4 7.4-.8-4.9c-.3-2.6-2-8.8-3.6-13.7-7.9-23.8-23.2-43.9-44.1-57.8-4-2.6-6.8-4.8-6.3-4.8 9.5-.3 20.1-1.2 24.5-2 13.4-2.7 27.8-8.5 38.8-15.8l5.5-3.7-6.4-1.3c-11.9-2.4-27.6-8.1-49.8-18.1-40-18.1-49.9-21.1-71.1-21.7-11-.3-17.5.1-27 1.6zM2493.1 2547c-2.1 3.5-3.6 7.7-6.6 18.4-.9 3.2-1.8 5.7-1.9 5.5-.2-.2-.6-5.9-.9-12.7-.3-6.8-.8-12.6-1.1-12.9-.3-.3-2.2.8-4.3 2.4-12.7 9.8-34.1 23.2-48.8 30.5-22.6 11.3-33 11-32.7-.9 0-2.7.6-6.1 1.2-7.7.6-1.6.9-3 .7-3.2-.2-.2-5.3 2.9-11.5 7-16.7 11.1-28.5 15.1-36.1 12.3-7.3-2.6-12.1-13.3-12.1-26.6v-6.5l-7 6.9c-3.9 3.9-10 11.2-13.6 16.2l-6.6 9.2-4.6-2.3c-13.6-6.9-31.9-9.3-47.2-6.2-4.6 1-10 2.4-12 3.3l-3.5 1.5 3 2.3c1.7 1.3 9.4 7.2 17.1 13.2 22 16.8 50.7 41.8 46.9 40.9-2.5-.6-37.2-6.6-38.3-6.6-.4 0 2.2 3 5.8 6.7 4.4 4.6 8.5 10.3 12.5 17.7 11.4 20.5 19.3 27.4 32.5 28.4 8.4.6 15.7-1.5 34.5-9.8 15.7-7 23-9 34.5-9.7 7.6-.5 19.5.6 24.7 2.3 1 .3-.5-.7-3.3-2.4-8.5-4.8-17.2-12.1-23-19-2.9-3.6-5.2-6.7-5-6.9.2-.2 11.9 1.9 26.1 4.7 14.3 2.7 26 4.8 26.1 4.7.2-.1-1.4-2.9-3.3-6.1-3.7-5.9-10.5-20.7-9.9-21.3.6-.6 13 4.3 21.6 8.7 8.5 4.3 24.8 14.8 27 17.6 4.1 4.9 5.2-2.2 2.5-16.3-1.7-8.7-2-19.7-.6-18.8 1.8 1.1 15.2 27.9 19.2 38.4.9 2.2 1.3 1.8 5.9-5.9 5.9-9.6 19.8-30.2 23.4-34.5l2.5-3 .1 3.6c0 2.5-1.9 7.5-6 15.8-5.9 11.8-8.7 20.6-6.9 21.7.5.3 2.8-1 5.2-2.9 6.9-5.6 15.7-11.2 24.4-15.6 9.1-4.5 21.4-9.4 22.1-8.7.6.6-8 18.5-11.1 23.2-1.5 2.1-2.5 3.9-2.4 4.1.2.1 11.9-2 26.2-4.7 14.2-2.8 25.9-4.9 26.1-4.7.7.7-10.4 13.3-14.9 17-2.6 2.1-7.7 5.6-11.4 7.9-3.8 2.2-6 3.7-5 3.4 5-1.7 17.1-2.8 24.8-2.3 11.5.7 18.9 2.8 34.3 9.6 19.3 8.5 22.8 9.6 32.6 9.6 7.1 0 9.3-.4 13.4-2.5 6.2-3.2 12.2-9.8 18.2-20.3 8.5-14.9 12.6-20.7 17.6-25.2 2.8-2.5 4.5-4.5 3.9-4.5-.6 0-8.9 1.3-18.4 3-9.4 1.6-18.3 3.2-19.7 3.4-2.2.4-2.1 0 1.6-3.3 16.7-14.8 30.1-25.9 43.4-36.2 8.5-6.6 16.9-13.1 18.5-14.4l3-2.3-3.5-1.5c-2-.9-7.4-2.3-12-3.3-15.3-3.1-33.6-.7-47.2 6.2l-4.8 2.4-4.3-6.5c-5.3-7.9-17.2-21.9-20.2-23.9l-2.3-1.5-.5 8.7c-.6 10.8-2 15.3-5.8 19.7-4 4.5-9.3 6-16.2 4.5-7-1.4-19.4-7.8-29.4-15-4.6-3.2-8.3-5.7-8.3-5.5 0 .2.7 3.1 1.6 6.5 4.4 17.2-6.7 19-33.6 5.5-11.9-6-33.6-19.6-46.2-29.2l-5.8-4.3-.1 5c-.1 2.8-.3 5.4-.4 6-.1.5-.3 4.5-.4 8.7-.2 9-.7 8.5-4.5-4.8-1.5-5.3-3.8-10.9-5.1-12.5l-2.3-2.8-2.1 3.4z"/></svg>